<svg width="100" height="23" viewBox="0 0 100 23" fill="none" xmlns="http://www.w3.org/2000/svg">
<g clip-path="url(#clip0_1066_1007)">
<path fillRule="evenodd" clipRule="evenodd" d="M3.10414 22.0998C2.371 21.9583 1.45462 21.6892 0.35499 21.2924C0.153949 21.2199 0.041175 21.0031 0.0955261 20.7937L1.3913 15.8007C1.44905 15.5781 1.6736 15.4453 1.89284 15.5039C1.89746 15.5051 1.90205 15.5064 1.90662 15.5078C4.26538 16.2287 6.40184 16.5891 8.31599 16.5891C8.71334 16.5891 9.07592 16.5191 9.40373 16.3783C9.73154 16.2383 9.89544 15.9775 9.89544 15.597C9.89544 15.397 9.84039 15.2266 9.73154 15.0862C9.62185 14.9462 9.42856 14.8007 9.15042 14.6507C8.87186 14.5003 8.48983 14.3353 8.00308 14.1545C7.51592 13.9749 6.905 13.7645 6.17033 13.5236C5.4551 13.2832 4.76968 12.9978 4.11406 12.6669C3.45844 12.3365 2.87733 11.9302 2.37071 11.4494C1.86409 10.9685 1.46178 10.3927 1.16377 9.72181C0.865763 9.05012 0.716758 8.24426 0.716758 7.30172C0.716758 5.98001 0.984967 4.85788 1.52138 3.93618C2.0578 3.01448 2.74777 2.25779 3.59255 1.66651C4.43691 1.07566 5.38516 0.649809 6.43854 0.389383C7.4915 0.12854 8.53453 -0.00146484 9.56763 -0.00146484C10.4577 -0.00146484 12.3304 0.182997 15.1857 0.55192C15.3907 0.578411 15.5444 0.755483 15.5444 0.965267V6.14902C15.5444 6.37914 15.3606 6.5657 15.1339 6.5657C15.1147 6.5657 15.0955 6.56433 15.0765 6.56161C11.7582 6.08637 9.9219 5.84875 9.56763 5.84875C9.05067 5.84875 8.63346 5.92334 8.31599 6.07376C7.99812 6.22376 7.83918 6.46877 7.83918 6.80837C7.83918 7.1288 8.00308 7.36881 8.33089 7.52881C8.6587 7.68924 9.19015 7.88841 9.92524 8.12842C10.6802 8.36843 11.4749 8.64886 12.3093 8.96887C13.1437 9.28888 13.9136 9.70389 14.6189 10.2135C15.3238 10.7239 15.9049 11.3494 16.3622 12.0886C16.8192 12.829 17.0477 13.7495 17.0477 14.8487C17.0477 16.1287 16.7944 17.2442 16.2877 18.1942C15.7811 19.1442 15.1152 19.9339 14.2911 20.5643C13.4666 21.1943 12.5374 21.6643 11.5047 21.9743C10.4716 22.2839 9.41863 22.4394 8.34579 22.4394C6.37645 22.4644 4.31977 22.3339 3.10414 22.0998Z" fill="#1B1D2C"/>
<path fillRule="evenodd" clipRule="evenodd" d="M30.2948 21.8394H24.0232C23.7965 21.8394 23.6127 21.6529 23.6127 21.4227V7.04554C23.6127 6.81541 23.4289 6.62886 23.2022 6.62886H18.8378C18.6111 6.62886 18.4273 6.4423 18.4273 6.21217V1.01531C18.4273 0.785188 18.6111 0.598633 18.8378 0.598633H35.4801C35.7069 0.598633 35.8906 0.785188 35.8906 1.01531V6.21217C35.8906 6.4423 35.7069 6.62886 35.4801 6.62886H31.1158C30.8891 6.62886 30.7053 6.81541 30.7053 7.04554V21.4227C30.7053 21.6529 30.5215 21.8394 30.2948 21.8394Z" fill="#1B1D2C"/>
<path fillRule="evenodd" clipRule="evenodd" d="M45.836 9.20153L44.6809 12.7104C44.609 12.9286 44.7251 13.1647 44.9401 13.2376C44.9821 13.2518 45.026 13.2591 45.0702 13.2591H47.3605C47.5872 13.2591 47.771 13.0725 47.771 12.8424C47.771 12.7983 47.7641 12.7544 47.7505 12.7124L46.6153 9.20358C46.5446 8.98494 46.3126 8.8659 46.0972 8.9377C45.974 8.97879 45.8771 9.07662 45.836 9.20153ZM42.8418 0.598633H49.8231C49.9918 0.598633 50.1434 0.703464 50.2051 0.862886L58.1075 21.2699C58.1904 21.4841 58.0866 21.7259 57.8756 21.8101C57.8278 21.8292 57.7768 21.839 57.7254 21.839H50.8983C50.725 21.839 50.5704 21.7286 50.5119 21.563L49.6043 18.9949C49.5458 18.8293 49.3912 18.7189 49.2179 18.7189H43.0958C42.9199 18.7189 42.7636 18.8326 42.7071 19.0017L41.8531 21.5562C41.7966 21.7253 41.6402 21.839 41.4644 21.839H34.8536C34.6268 21.839 34.4431 21.6524 34.4431 21.4223C34.4431 21.3696 34.4529 21.3174 34.4721 21.2685L42.4603 0.861454C42.5224 0.702787 42.6736 0.598633 42.8418 0.598633Z" fill="#1B1D2C"/>
<path fillRule="evenodd" clipRule="evenodd" d="M91.5922 0.598633L88.7597 6.14192C88.6553 6.34621 88.4075 6.42592 88.2063 6.31996C88.1335 6.28163 88.0736 6.22204 88.0345 6.14888L85.1824 0.816504C85.1106 0.68224 84.9721 0.598633 84.8216 0.598633H77.9434H76.513H69.8487C69.6954 0.598633 69.5549 0.685334 69.4843 0.823463L66.7666 6.14192C66.6622 6.34621 66.4144 6.42592 66.2132 6.31996C66.1404 6.28163 66.0806 6.22204 66.0414 6.14888L63.1893 0.816504C63.1175 0.68224 62.979 0.598633 62.8285 0.598633H55.2726C55.0459 0.598633 54.8621 0.785188 54.8621 1.01531C54.8621 1.09533 54.8848 1.17366 54.9274 1.24093L62.4114 13.036C62.4541 13.1033 62.4768 13.1816 62.4768 13.2617V21.4227C62.4768 21.6529 62.6605 21.8394 62.8873 21.8394H69.1589C69.3856 21.8394 69.5694 21.6529 69.5694 21.4227V13.267C69.5694 13.1837 69.594 13.1022 69.6401 13.0332L76.8614 2.21899C76.9886 2.02849 77.2439 1.97874 77.4316 2.10786C77.4774 2.13937 77.5164 2.17995 77.5464 2.22716L84.4044 13.036C84.4471 13.1033 84.4698 13.1816 84.4698 13.2617V21.4227C84.4698 21.6529 84.6536 21.8394 84.8803 21.8394H91.1519C91.3787 21.8394 91.5625 21.6529 91.5625 21.4227V13.267C91.5625 13.1837 91.5871 13.1022 91.6331 13.0332L99.5021 1.2491C99.6294 1.05861 99.5803 0.799514 99.3927 0.670398C99.3247 0.623631 99.2445 0.598633 99.1623 0.598633H91.5922Z" fill="#1B1D2C"/>
<path fillRule="evenodd" clipRule="evenodd" d="M77.476 15.4279L74.6653 16.4823C74.5671 16.5192 74.5018 16.6143 74.5018 16.7206V21.8458C74.5018 21.9574 74.5736 22.0559 74.6786 22.0886L77.4893 22.9646C77.6215 23.0058 77.7615 22.9304 77.802 22.7963C77.8093 22.7722 77.813 22.747 77.813 22.7218V15.6661C77.813 15.5258 77.701 15.4121 77.5628 15.4121C77.5332 15.4121 77.5038 15.4174 77.476 15.4279Z" fill="#1B1D2C"/>
</g>
<defs>
<clipPath id="clip0_1066_1007">
<rect width="100" height="23.0009" fill="white"/>
</clipPath>
</defs>
</svg>
