<svg width="114" height="40" viewBox="0 0 114 40" fill="none" xmlns="http://www.w3.org/2000/svg">
<g clip-path="url(#clip0_1031_2464)">
<path d="M20.9267 4.22411L35.901 16.8225C36.2083 17.0795 36.3857 17.458 36.3857 17.8569V34.5545C36.3857 35.3016 35.3362 36.3581 34.5834 36.3581L24.1712 36.3581L24.1713 33.6514C27.0774 33.6519 29.6677 33.6523 31.2276 33.6525L31.5816 33.6525C31.7484 33.6526 31.8995 33.6526 32.0338 33.6526L32.3847 33.6526C32.4177 33.6526 32.4488 33.6526 32.4778 33.6527L32.7529 33.6527C33.481 33.6527 33.6595 33.1353 33.6595 32.6703L33.6595 18.8006C33.6588 18.4513 33.6415 18.307 33.2209 17.959C32.9316 17.7195 28.6222 14.1537 20.2928 7.26141C20.2052 7.18897 20.0216 7.04863 19.7609 7.26468C19.589 7.40709 15.2325 11.0119 6.69138 18.0792C6.59414 18.1596 6.39803 18.4293 6.39997 18.8339C6.41869 22.7357 6.42702 25.7979 6.42744 28.0207L6.42744 28.312C6.42711 30.842 6.41596 32.2074 6.39803 32.4083C6.34629 32.9877 6.44976 33.6362 7.64332 33.6444C8.0597 33.6473 14.9613 33.6495 21.4255 33.6508L21.4254 36.3581L5.48863 36.3581C4.73582 36.3581 3.67188 35.3016 3.67188 34.5545V17.8569C3.67188 17.458 3.84923 17.0795 4.15654 16.8225L19.1699 4.22411C19.6774 3.79965 20.4192 3.79965 20.9267 4.22411Z" fill="#000F37"/>
<path fillRule="evenodd" clipRule="evenodd" d="M20.7137 22.089L14.9291 23.6618C14.6836 23.7285 14.5133 23.9514 14.5133 24.2057V35.8685C14.5133 36.1099 14.667 36.3245 14.8956 36.4022L20.6802 38.3682C20.975 38.4684 21.2952 38.3106 21.3953 38.0159C21.4152 37.9574 21.4253 37.8962 21.4253 37.8345V22.6329C21.4253 22.3216 21.1729 22.0692 20.8616 22.0692C20.8117 22.0692 20.7619 22.0759 20.7137 22.089Z" fill="#000F37"/>
</g>
<g clip-path="url(#clip1_1031_2464)">
<path fillRule="evenodd" clipRule="evenodd" d="M50.2775 28.2202C49.7986 28.1292 49.2001 27.956 48.4819 27.7007C48.3506 27.654 48.277 27.5145 48.3125 27.3798L49.1588 24.167C49.1965 24.0238 49.3431 23.9383 49.4863 23.9761C49.4893 23.9769 49.4923 23.9777 49.4953 23.9786C51.0359 24.4425 52.4313 24.6744 53.6815 24.6744C53.941 24.6744 54.1778 24.6293 54.3919 24.5387C54.606 24.4486 54.713 24.2808 54.713 24.036C54.713 23.9073 54.6771 23.7977 54.606 23.7073C54.5343 23.6172 54.4081 23.5236 54.2264 23.4271C54.0445 23.3303 53.795 23.2242 53.4771 23.1078C53.1589 22.9922 52.7599 22.8568 52.2801 22.7019C51.8129 22.5472 51.3653 22.3635 50.9371 22.1506C50.5089 21.938 50.1293 21.6766 49.7984 21.3672C49.4676 21.0578 49.2048 20.6873 49.0102 20.2556C48.8155 19.8234 48.7182 19.3049 48.7182 18.6984C48.7182 17.8479 48.8934 17.1259 49.2437 16.5328C49.5941 15.9398 50.0447 15.4529 50.5965 15.0724C51.1479 14.6922 51.7672 14.4182 52.4552 14.2507C53.143 14.0828 53.8242 13.9992 54.4989 13.9992C55.0803 13.9992 56.3034 14.1179 58.1682 14.3552C58.3021 14.3723 58.4025 14.4862 58.4025 14.6212V17.9567C58.4025 18.1048 58.2824 18.2248 58.1344 18.2248C58.1218 18.2248 58.1093 18.2239 58.0969 18.2222C55.9296 17.9164 54.7303 17.7635 54.4989 17.7635C54.1613 17.7635 53.8888 17.8115 53.6815 17.9083C53.4738 18.0048 53.37 18.1624 53.37 18.381C53.37 18.5871 53.4771 18.7416 53.6912 18.8445C53.9053 18.9477 54.2524 19.0759 54.7325 19.2303C55.2256 19.3848 55.7446 19.5652 56.2896 19.7711C56.8346 19.977 57.3374 20.2441 57.798 20.572C58.2584 20.9004 58.6379 21.3029 58.9367 21.7785C59.2351 22.2549 59.3843 22.8472 59.3843 23.5545C59.3843 24.3781 59.2189 25.0959 58.888 25.7072C58.5571 26.3185 58.1222 26.8265 57.5839 27.2322C57.0454 27.6376 56.4385 27.94 55.7641 28.1395C55.0893 28.3387 54.4016 28.4387 53.7009 28.4387C52.4147 28.4548 51.0714 28.3709 50.2775 28.2202Z" fill="#000F37"/>
<path fillRule="evenodd" clipRule="evenodd" d="M68.0364 28.0526H63.9402C63.7922 28.0526 63.6721 27.9326 63.6721 27.7845V18.5335C63.6721 18.3854 63.5521 18.2654 63.404 18.2654H60.5535C60.4055 18.2654 60.2854 18.1453 60.2854 17.9973V14.6534C60.2854 14.5053 60.4055 14.3852 60.5535 14.3852H71.4231C71.5711 14.3852 71.6912 14.5053 71.6912 14.6534V17.9973C71.6912 18.1453 71.5711 18.2654 71.4231 18.2654H68.5726C68.4245 18.2654 68.3045 18.3854 68.3045 18.5335V27.7845C68.3045 27.9326 68.1844 28.0526 68.0364 28.0526Z" fill="#000F37"/>
<path fillRule="evenodd" clipRule="evenodd" d="M78.1866 19.9208L77.4322 22.1785C77.3853 22.319 77.4611 22.4709 77.6015 22.5178C77.6289 22.5269 77.6576 22.5316 77.6865 22.5316H79.1823C79.3304 22.5316 79.4504 22.4116 79.4504 22.2635C79.4504 22.2351 79.4459 22.2068 79.437 22.1798L78.6956 19.9221C78.6494 19.7814 78.4979 19.7048 78.3573 19.751C78.2767 19.7774 78.2135 19.8404 78.1866 19.9208ZM76.2311 14.3852H80.7907C80.9009 14.3852 80.9999 14.4527 81.0402 14.5553L86.2015 27.6861C86.2556 27.824 86.1878 27.9796 86.05 28.0338C86.0188 28.046 85.9855 28.0523 85.9519 28.0523H81.493C81.3798 28.0523 81.2788 27.9813 81.2406 27.8748L80.6478 26.2223C80.6096 26.1158 80.5086 26.0447 80.3955 26.0447H76.3969C76.2821 26.0447 76.18 26.1179 76.143 26.2267L75.5853 27.8704C75.5484 27.9792 75.4463 28.0523 75.3314 28.0523H71.0137C70.8657 28.0523 70.7456 27.9323 70.7456 27.7842C70.7456 27.7503 70.7521 27.7167 70.7646 27.6852L75.9819 14.5544C76.0225 14.4523 76.1212 14.3852 76.2311 14.3852Z" fill="#000F37"/>
<path fillRule="evenodd" clipRule="evenodd" d="M108.071 14.3852L106.221 17.9521C106.153 18.0835 105.991 18.1348 105.86 18.0666C105.812 18.042 105.773 18.0036 105.748 17.9565L103.885 14.5254C103.838 14.439 103.747 14.3852 103.649 14.3852H99.1568H98.2226H93.87C93.7698 14.3852 93.6781 14.441 93.632 14.5299L91.857 17.9521C91.7888 18.0835 91.627 18.1348 91.4955 18.0666C91.448 18.042 91.4089 18.0036 91.3833 17.9565L89.5205 14.5254C89.4736 14.439 89.3832 14.3852 89.2849 14.3852H84.3499C84.2019 14.3852 84.0818 14.5053 84.0818 14.6534C84.0818 14.7048 84.0966 14.7552 84.1245 14.7985L89.0125 22.3881C89.0403 22.4314 89.0552 22.4818 89.0552 22.5333V27.7845C89.0552 27.9326 89.1752 28.0526 89.3233 28.0526H93.4194C93.5675 28.0526 93.6875 27.9326 93.6875 27.7845V22.5367C93.6875 22.4831 93.7036 22.4307 93.7337 22.3863L98.4502 15.4279C98.5332 15.3053 98.7 15.2733 98.8225 15.3564C98.8524 15.3766 98.8779 15.4027 98.8975 15.4331L103.377 22.3881C103.405 22.4314 103.419 22.4818 103.419 22.5333V27.7845C103.419 27.9326 103.539 28.0526 103.688 28.0526H107.784C107.932 28.0526 108.052 27.9326 108.052 27.7845V22.5367C108.052 22.4831 108.068 22.4307 108.098 22.3863L113.237 14.8038C113.32 14.6812 113.288 14.5145 113.166 14.4314C113.121 14.4013 113.069 14.3852 113.015 14.3852H108.071Z" fill="#000F37"/>
<path fillRule="evenodd" clipRule="evenodd" d="M98.8515 23.9271L97.0158 24.6056C96.9516 24.6293 96.909 24.6905 96.909 24.7589V28.0567C96.909 28.1285 96.9558 28.1919 97.0245 28.213L98.8602 28.7766C98.9465 28.8031 99.0379 28.7546 99.0644 28.6683C99.0692 28.6528 99.0716 28.6366 99.0716 28.6203V24.0804C99.0716 23.9901 98.9984 23.917 98.9082 23.917C98.8888 23.917 98.8696 23.9204 98.8515 23.9271Z" fill="#000F37"/>
</g>
<defs>
<clipPath id="clip0_1031_2464">
<rect width="32.7138" height="34.5312" fill="white" transform="translate(3.67188 3.90625)"/>
</clipPath>
<clipPath id="clip1_1031_2464">
<rect width="65.3125" height="14.7999" fill="white" transform="translate(48.25 14)"/>
</clipPath>
</defs>
</svg>
