<svg xmlns="http://www.w3.org/2000/svg" width="18" height="18" viewBox="0 0 18 18" fill="none">
  <path d="M10.0756 10.0753L16.6248 10.0825C17.2227 10.0824 17.7075 9.59768 17.7075 8.99976C17.7076 8.40183 17.2229 7.91715 16.625 7.91719L10.0757 7.92528L10.0838 1.37606C10.0839 0.778134 9.5992 0.293454 9.00127 0.293496C8.40334 0.293538 7.91859 0.778288 7.91855 1.37621L7.92571 7.92543L1.37649 7.91827C1.089 7.91712 0.812929 8.03082 0.609624 8.23413C0.406319 8.43743 0.292614 8.7135 0.293773 9.00099C0.292573 9.28849 0.406238 9.56454 0.609515 9.76782C0.812791 9.97109 1.08884 10.0848 1.37634 10.0836L7.92556 10.0755L7.91747 16.6247C7.91627 16.9122 8.02993 17.1882 8.23321 17.3915C8.43649 17.5948 8.71254 17.7085 9.00003 17.7073C9.28753 17.7084 9.56359 17.5947 9.7669 17.3914C9.9702 17.1881 10.0839 16.912 10.0828 16.6245L10.0756 10.0753Z" fill="#8999B0" />
</svg>