<svg xmlns="http://www.w3.org/2000/svg" width="24" height="24" viewBox="0 0 24 24" fill="none">
  <path d="M19.0001 9.00089C18.3812 9.00263 17.7779 9.19577 17.2731 9.55383C16.7682 9.91189 16.3864 10.4173 16.1801 11.0009H3.00012C2.73491 11.0009 2.48055 11.1062 2.29302 11.2938C2.10548 11.4813 2.00012 11.7357 2.00012 12.0009C2.00012 12.2661 2.10548 12.5205 2.29302 12.708C2.48055 12.8955 2.73491 13.0009 3.00012 13.0009H16.1801C16.3636 13.5198 16.6862 13.9782 17.1128 14.326C17.5393 14.6737 18.0533 14.8975 18.5985 14.9727C19.1437 15.0479 19.699 14.9718 20.2038 14.7525C20.7086 14.5332 21.1434 14.1793 21.4605 13.7295C21.7776 13.2797 21.9649 12.7513 22.0018 12.2022C22.0387 11.6531 21.9239 11.1044 21.6699 10.6162C21.4158 10.1279 21.0324 9.71901 20.5615 9.43412C20.0906 9.14922 19.5505 8.99935 19.0001 9.00089ZM3.00012 7.00089H4.18012C4.39033 7.58004 4.77375 8.08043 5.27829 8.43405C5.78282 8.78767 6.384 8.97737 7.00012 8.97737C7.61624 8.97737 8.21742 8.78767 8.72196 8.43405C9.22649 8.08043 9.60992 7.58004 9.82012 7.00089H21.0001C21.2653 7.00089 21.5197 6.89553 21.7072 6.708C21.8948 6.52046 22.0001 6.26611 22.0001 6.00089C22.0001 5.73567 21.8948 5.48132 21.7072 5.29378C21.5197 5.10625 21.2653 5.00089 21.0001 5.00089H9.82012C9.60992 4.42174 9.22649 3.92135 8.72196 3.56773C8.21742 3.21411 7.61624 3.02441 7.00012 3.02441C6.384 3.02441 5.78282 3.21411 5.27829 3.56773C4.77375 3.92135 4.39033 4.42174 4.18012 5.00089H3.00012C2.73491 5.00089 2.48055 5.10625 2.29302 5.29378C2.10548 5.48132 2.00012 5.73567 2.00012 6.00089C2.00012 6.26611 2.10548 6.52046 2.29302 6.708C2.48055 6.89553 2.73491 7.00089 3.00012 7.00089ZM21.0001 17.0009H13.8201C13.6099 16.4217 13.2265 15.9214 12.722 15.5677C12.2174 15.2141 11.6162 15.0244 11.0001 15.0244C10.384 15.0244 9.78282 15.2141 9.27829 15.5677C8.77375 15.9214 8.39033 16.4217 8.18012 17.0009H3.00012C2.73491 17.0009 2.48055 17.1062 2.29302 17.2938C2.10548 17.4813 2.00012 17.7357 2.00012 18.0009C2.00012 18.2661 2.10548 18.5205 2.29302 18.708C2.48055 18.8955 2.73491 19.0009 3.00012 19.0009H8.18012C8.39033 19.58 8.77375 20.0804 9.27829 20.434C9.78282 20.7877 10.384 20.9774 11.0001 20.9774C11.6162 20.9774 12.2174 20.7877 12.722 20.434C13.2265 20.0804 13.6099 19.58 13.8201 19.0009H21.0001C21.2653 19.0009 21.5197 18.8955 21.7072 18.708C21.8948 18.5205 22.0001 18.2661 22.0001 18.0009C22.0001 17.7357 21.8948 17.4813 21.7072 17.2938C21.5197 17.1062 21.2653 17.0009 21.0001 17.0009Z" fill="#8999B0" />
</svg>