<svg xmlns="http://www.w3.org/2000/svg" width="24" height="24" viewBox="0 0 24 24" fill="none">
<path d="M19 16.001C18.4067 16.001 17.8266 16.1769 17.3333 16.5066C16.8399 16.8362 16.4554 17.3047 16.2284 17.8529C16.0013 18.4011 15.9419 19.0043 16.0576 19.5862C16.1734 20.1682 16.4591 20.7027 16.8787 21.1223C17.2982 21.5419 17.8328 21.8276 18.4147 21.9433C18.9967 22.0591 19.5999 21.9997 20.1481 21.7726C20.6962 21.5456 21.1648 21.161 21.4944 20.6677C21.8241 20.1743 22 19.5943 22 19.001C22 18.2053 21.6839 17.4423 21.1213 16.8797C20.5587 16.317 19.7956 16.001 19 16.001ZM19 20.001C18.8022 20.001 18.6089 19.9423 18.4444 19.8324C18.28 19.7226 18.1518 19.5664 18.0761 19.3837C18.0004 19.2009 17.9806 18.9999 18.0192 18.8059C18.0578 18.6119 18.153 18.4337 18.2929 18.2939C18.4327 18.154 18.6109 18.0588 18.8049 18.0202C18.9989 17.9816 19.2 18.0014 19.3827 18.0771C19.5654 18.1528 19.7216 18.281 19.8315 18.4454C19.9414 18.6099 20 18.8032 20 19.001C20 19.2662 19.8946 19.5205 19.7071 19.7081C19.5196 19.8956 19.2652 20.001 19 20.001ZM9 16.001C8.40666 16.001 7.82664 16.1769 7.33329 16.5066C6.83994 16.8362 6.45542 17.3047 6.22836 17.8529C6.0013 18.4011 5.94189 19.0043 6.05764 19.5862C6.1734 20.1682 6.45912 20.7027 6.87868 21.1223C7.29824 21.5419 7.83279 21.8276 8.41473 21.9433C8.99667 22.0591 9.59987 21.9997 10.1481 21.7726C10.6962 21.5456 11.1648 21.161 11.4944 20.6677C11.8241 20.1743 12 19.5943 12 19.001C12 18.2053 11.6839 17.4423 11.1213 16.8797C10.5587 16.317 9.79565 16.001 9 16.001ZM9 20.001C8.80222 20.001 8.60888 19.9423 8.44443 19.8324C8.27998 19.7226 8.15181 19.5664 8.07612 19.3837C8.00043 19.2009 7.98063 18.9999 8.01921 18.8059C8.0578 18.6119 8.15304 18.4337 8.29289 18.2939C8.43275 18.154 8.61093 18.0588 8.80491 18.0202C8.99889 17.9816 9.19996 18.0014 9.38268 18.0771C9.56541 18.1528 9.72159 18.281 9.83147 18.4454C9.94135 18.6099 10 18.8032 10 19.001C10 19.2662 9.89464 19.5205 9.70711 19.7081C9.51957 19.8956 9.26522 20.001 9 20.001ZM22 8.50098C21.9974 6.77788 21.3117 5.12612 20.0933 3.9077C18.8749 2.68929 17.2231 2.00362 15.5 2.00098H15C14.7348 2.00098 14.4804 2.10633 14.2929 2.29387C14.1054 2.48141 14 2.73576 14 3.00098V8.00098H7.52L6.27 4.65098C6.19849 4.45958 6.07006 4.29467 5.902 4.17846C5.73395 4.06225 5.53432 4.00031 5.33 4.00098H3C2.73478 4.00098 2.48043 4.10633 2.29289 4.29387C2.10536 4.48141 2 4.73576 2 5.00098C2 5.26619 2.10536 5.52055 2.29289 5.70808C2.48043 5.89562 2.73478 6.00098 3 6.00098H4.64L5.89 9.37098L6.4 10.741V10.831C6.86587 12.0681 7.70115 13.1319 8.79245 13.8779C9.88374 14.6239 11.1782 15.016 12.5 15.001H15.5C16.354 15.0023 17.1998 14.8351 17.989 14.5089C18.7782 14.1827 19.4953 13.7039 20.0991 13.1001C20.703 12.4963 21.1817 11.7792 21.5079 10.99C21.8341 10.2008 22.0013 9.35494 22 8.50098ZM18.68 11.681C18.2635 12.1003 17.768 12.4329 17.2222 12.6594C16.6764 12.886 16.091 13.0021 15.5 13.001H12.5C11.6061 13.0037 10.7319 12.7384 9.99039 12.2393C9.24883 11.7401 8.67395 11.0301 8.34 10.201C8.33566 10.1812 8.33566 10.1607 8.34 10.141L8.26 10.001H19.74C19.522 10.6357 19.159 11.2109 18.68 11.681ZM16 8.00098V4.00098C17.0244 4.10782 17.9809 4.56358 18.7091 5.29184C19.4374 6.02011 19.8932 6.97661 20 8.00098H16Z" fill="#8999B0" />
</svg>
