
    <svg
      xmlns="http://www.w3.org/2000/svg"
      width="24"
      height="24"
      viewBox="0 0 24 24"
      fill="none"
    >
      <path
        fillRule="evenodd"
        clipRule="evenodd"
        d="M2 12.001C2 17.5238 6.47715 22.001 12 22.001C17.5228 22.001 22 17.5238 22 12.001C22 6.47813 17.5228 2.00098 12 2.00098C6.47715 2.00098 2 6.47813 2 12.001ZM4 12.001C4 7.5827 7.58172 4.00098 12 4.00098C16.4183 4.00098 20 7.5827 20 12.001C20 16.4193 16.4183 20.001 12 20.001C7.58172 20.001 4 16.4193 4 12.001Z"
        fill="#8999B0"
      />
      <rect
        x="4.58582"
        y="17.7285"
        width="18"
        height="2"
        transform="rotate(-45 4.58582 17.7285)"
        fill="#8999B0"
      />
      <path
        d="M15.7 14.401C15.344 14.401 14.996 14.5065 14.7 14.7043C14.404 14.9021 14.1733 15.1832 14.037 15.5121C13.9008 15.8411 13.8651 16.203 13.9346 16.5521C14.004 16.9013 14.1755 17.222 14.4272 17.4738C14.6789 17.7255 14.9997 17.8969 15.3488 17.9664C15.698 18.0358 16.0599 18.0002 16.3888 17.864C16.7177 17.7277 16.9989 17.497 17.1966 17.201C17.3944 16.905 17.5 16.557 17.5 16.201C17.5 15.7236 17.3104 15.2657 16.9728 14.9282C16.6352 14.5906 16.1774 14.401 15.7 14.401ZM15.7 16.801C15.5813 16.801 15.4653 16.7658 15.3667 16.6999C15.268 16.6339 15.1911 16.5402 15.1457 16.4306C15.1003 16.3209 15.0884 16.2003 15.1115 16.0839C15.1347 15.9675 15.1918 15.8606 15.2757 15.7767C15.3596 15.6928 15.4666 15.6357 15.5829 15.6125C15.6993 15.5894 15.82 15.6012 15.9296 15.6466C16.0392 15.6921 16.133 15.769 16.1989 15.8676C16.2648 15.9663 16.3 16.0823 16.3 16.201C16.3 16.3601 16.2368 16.5127 16.1243 16.6252C16.0117 16.7378 15.8591 16.801 15.7 16.801ZM9.7 14.401C9.34399 14.401 8.99598 14.5065 8.69997 14.7043C8.40396 14.9021 8.17325 15.1832 8.03702 15.5121C7.90078 15.8411 7.86513 16.203 7.93459 16.5521C8.00404 16.9013 8.17547 17.222 8.42721 17.4738C8.67894 17.7255 8.99967 17.8969 9.34884 17.9664C9.698 18.0358 10.0599 18.0002 10.3888 17.864C10.7177 17.7277 10.9989 17.497 11.1966 17.201C11.3944 16.905 11.5 16.557 11.5 16.201C11.5 15.7236 11.3104 15.2657 10.9728 14.9282C10.6352 14.5906 10.1774 14.401 9.7 14.401ZM9.7 16.801C9.58133 16.801 9.46533 16.7658 9.36666 16.6999C9.26799 16.6339 9.19108 16.5402 9.14567 16.4306C9.10026 16.3209 9.08838 16.2003 9.11153 16.0839C9.13468 15.9675 9.19182 15.8606 9.27574 15.7767C9.35965 15.6928 9.46656 15.6357 9.58295 15.6125C9.69933 15.5894 9.81997 15.6012 9.92961 15.6466C10.0392 15.6921 10.133 15.769 10.1989 15.8676C10.2648 15.9663 10.3 16.0823 10.3 16.201C10.3 16.3601 10.2368 16.5127 10.1243 16.6252C10.0117 16.7378 9.85913 16.801 9.7 16.801ZM17.5 9.90098C17.4984 8.86712 17.087 7.87606 16.356 7.14501C15.6249 6.41396 14.6339 6.00256 13.6 6.00098H13.3C13.1409 6.00098 12.9883 6.06419 12.8757 6.17671C12.7632 6.28923 12.7 6.44185 12.7 6.60098V9.60098H8.812L8.062 7.59098C8.01909 7.47614 7.94204 7.3772 7.8412 7.30747C7.74037 7.23774 7.62059 7.20058 7.498 7.20098H6.1C5.94087 7.20098 5.78826 7.26419 5.67574 7.37671C5.56321 7.48923 5.5 7.64185 5.5 7.80098C5.5 7.96011 5.56321 8.11272 5.67574 8.22524C5.78826 8.33776 5.94087 8.40098 6.1 8.40098H7.084L7.834 10.423L8.14 11.245V11.299C8.41952 12.0412 8.92069 12.6795 9.57547 13.1271C10.2302 13.5747 11.0069 13.81 11.8 13.801H13.6C14.1124 13.8018 14.6199 13.7014 15.0934 13.5057C15.5669 13.31 15.9972 13.0228 16.3595 12.6605C16.7218 12.2981 17.009 11.8679 17.2047 11.3944C17.4005 10.9208 17.5008 10.4134 17.5 9.90098ZM15.508 11.809C15.2581 12.0606 14.9608 12.2601 14.6333 12.3961C14.3058 12.532 13.9546 12.6016 13.6 12.601H11.8C11.2637 12.6026 10.7392 12.4434 10.2942 12.1439C9.8493 11.8445 9.50437 11.4185 9.304 10.921C9.3014 10.9091 9.3014 10.8968 9.304 10.885L9.256 10.801H16.144C16.0132 11.1818 15.7954 11.5269 15.508 11.809ZM13.9 9.60098V7.20098C14.5146 7.26508 15.0885 7.53854 15.5255 7.9755C15.9624 8.41246 16.2359 8.98636 16.3 9.60098H13.9Z"
        fill="#8999B0"
      />
    </svg>