<svg xmlns="http://www.w3.org/2000/svg" width="24" height="24" viewBox="0 0 24 24" fill="none">
<path d="M19 3.00098H7C6.20435 3.00098 5.44129 3.31705 4.87868 3.87966C4.31607 4.44227 4 5.20533 4 6.00098V18.001C4 18.7966 4.31607 19.5597 4.87868 20.1223C5.44129 20.6849 6.20435 21.001 7 21.001H19C19.2652 21.001 19.5196 20.8956 19.7071 20.7081C19.8946 20.5205 20 20.2662 20 20.001V4.00098C20 3.73576 19.8946 3.48141 19.7071 3.29387C19.5196 3.10633 19.2652 3.00098 19 3.00098ZM7 19.001C6.73478 19.001 6.48043 18.8956 6.29289 18.7081C6.10536 18.5205 6 18.2662 6 18.001C6 17.7358 6.10536 17.4814 6.29289 17.2939C6.48043 17.1063 6.73478 17.001 7 17.001H18V19.001H7Z" fill="#8999B0" />
</svg>