<svg xmlns="http://www.w3.org/2000/svg" width="24" height="24" viewBox="0 0 24 24" fill="none">
<path d="M19 4.00098H18V3.00098C18 2.45098 17.55 2.00098 17 2.00098C16.45 2.00098 16 2.45098 16 3.00098V4.00098H8V3.00098C8 2.45098 7.55 2.00098 7 2.00098C6.45 2.00098 6 2.45098 6 3.00098V4.00098H5C3.89 4.00098 3.01 4.90098 3.01 6.00098L3 20.001C3 20.5314 3.21071 21.0401 3.58579 21.4152C3.96086 21.7903 4.46957 22.001 5 22.001H19C20.1 22.001 21 21.101 21 20.001V6.00098C21 4.90098 20.1 4.00098 19 4.00098ZM19 20.001H5V10.001H19V20.001Z" fill="#8999B0" />
</svg>