
    <svg
      width="24"
      height="24"
      viewBox="0 0 24 24"
      fill="none"
      xmlns="http://www.w3.org/2000/svg"
    >
      <path
        d="M13.8782 11.9998L19.606 6.28455C20.1283 5.76215 20.1283 4.91517 19.606 4.39278C19.0837 3.87038 18.2368 3.87038 17.7145 4.39278L12 10.1214L6.28552 4.39278C5.7632 3.87038 4.91634 3.87038 4.39402 4.39278C3.87169 4.91517 3.87169 5.76215 4.39402 6.28455L10.1218 11.9998L4.39402 17.7151C4.14184 17.9653 4 18.3058 4 18.661C4 19.0162 4.14184 19.3568 4.39402 19.6069C4.64413 19.8591 4.9846 20.001 5.33977 20.001C5.69494 20.001 6.03541 19.8591 6.28552 19.6069L12 13.8783L17.7145 19.6069C17.9646 19.8591 18.3051 20.001 18.6602 20.001C19.0154 20.001 19.3559 19.8591 19.606 19.6069C19.8582 19.3568 20 19.0162 20 18.661C20 18.3058 19.8582 17.9653 19.606 17.7151L13.8782 11.9998Z"
        fill="#8999B0"
      />
    </svg>
