
        <svg xmlns="http://www.w3.org/2000/svg" width="24" height="24" viewBox="0 0 24 24" fill="none">
            <path d="M12 2.00098C10.0222 2.00098 8.08879 2.58747 6.4443 3.68628C4.79981 4.78509 3.51809 6.34688 2.76121 8.17414C2.00433 10.0014 1.8063 12.0121 2.19215 13.9519C2.578 15.8917 3.53041 17.6735 4.92894 19.072C6.32746 20.4706 8.10929 21.423 10.0491 21.8088C11.9889 22.1947 13.9996 21.9966 15.8268 21.2398C17.6541 20.4829 19.2159 19.2012 20.3147 17.5567C21.4135 15.9122 22 13.9788 22 12.001C22 10.6878 21.7413 9.3874 21.2388 8.17414C20.7363 6.96089 19.9997 5.85849 19.0711 4.92991C18.1425 4.00132 17.0401 3.26473 15.8268 2.76218C14.6136 2.25963 13.3132 2.00098 12 2.00098ZM12 20.001C10.4178 20.001 8.87104 19.5318 7.55544 18.6527C6.23985 17.7737 5.21447 16.5243 4.60897 15.0624C4.00347 13.6006 3.84504 11.9921 4.15372 10.4403C4.4624 8.88841 5.22433 7.46294 6.34315 6.34412C7.46197 5.2253 8.88743 4.46338 10.4393 4.15469C11.9911 3.84601 13.5997 4.00444 15.0615 4.60994C16.5233 5.21544 17.7727 6.24082 18.6518 7.55641C19.5308 8.87201 20 10.4187 20 12.001C20 14.1227 19.1572 16.1575 17.6569 17.6578C16.1566 19.1581 14.1217 20.001 12 20.001Z" fill="#8999B0" />
            <path d="M14.6999 8.39115L10.9199 13.3912L9.28994 11.2812C9.12684 11.0716 8.88718 10.9355 8.62369 10.9027C8.3602 10.8698 8.09447 10.943 7.88495 11.1062C7.67542 11.2693 7.53928 11.5089 7.50646 11.7724C7.47364 12.0359 7.54684 12.3016 7.70994 12.5112L10.1399 15.6212C10.2341 15.7403 10.3542 15.8365 10.4911 15.9023C10.628 15.9682 10.7781 16.002 10.9299 16.0012C11.0827 16.0008 11.2333 15.9654 11.3702 15.8978C11.5071 15.8302 11.6268 15.7322 11.7199 15.6112L16.2899 9.61115C16.4517 9.39898 16.5226 9.13123 16.487 8.8668C16.4513 8.60238 16.3121 8.36294 16.0999 8.20115C15.8878 8.03937 15.62 7.9685 15.3556 8.00413C15.0912 8.03976 14.8517 8.17898 14.6899 8.39115H14.6999Z" fill="#8999B0" />
        </svg>