
        <svg xmlns="http://www.w3.org/2000/svg" width="24" height="24" viewBox="0 0 24 24" fill="none">
            <path d="M14 9.00098C14 9.00098 12.3333 8.46252 12.3333 5.77021M12.3333 5.77021H4V4.15482L6.77778 2.00098H12.3333C12.3333 2.00098 12.3333 4.69328 12.3333 5.77021Z" stroke="#8999B0" strokeWidth="2" strokeLinecap="round" strokeLinejoin="round" />
            <path d="M6.5 9.00098V6.00098H9.5V9.00098M6.5 9.00098H5.5C5.5 10.501 5.4 11.601 5 12.001C4.6 12.401 4.66667 12.501 4.5 12.501V22.001H15C15 20.6676 15 18.601 15 17.001C15 14.501 13.5 12.501 10.5 12.501C10.5 11.501 10.5 10.501 10.5 9.00098H6.5Z" stroke="#8999B0" strokeWidth="2" strokeLinejoin="round" />
            <path d="M17.5 2.00098H21.5" stroke="#8999B0" strokeWidth="2" strokeLinecap="round" strokeLinejoin="round" />
            <path d="M17.5 5.00098L21 7.00098" stroke="#8999B0" strokeWidth="2" strokeLinecap="round" strokeLinejoin="round" />
            <path d="M9.5 19.001H14.5" stroke="#8999B0" strokeWidth="2" strokeLinecap="round" strokeLinejoin="round" />
            <path d="M9.5 16.001H14.5" stroke="#8999B0" strokeWidth="2" strokeLinecap="round" strokeLinejoin="round" />
            <path d="M13 3.00098H14V5.00098H13" stroke="#8999B0" strokeWidth="2" strokeLinecap="round" strokeLinejoin="round" />
        </svg>