
        <svg xmlns="http://www.w3.org/2000/svg" width="16" height="16" viewBox="0 0 16 16" fill="none">
            <path d="M9.87818 7.99984L15.606 2.28455C16.1283 1.76215 16.1283 0.915175 15.606 0.392776C15.0837 -0.129623 14.2368 -0.129623 13.7145 0.392776L8 6.12139L2.28552 0.392776C1.7632 -0.129623 0.916342 -0.129623 0.394017 0.392776C-0.128308 0.915175 -0.128308 1.76215 0.394017 2.28455L6.12182 7.99984L0.394017 13.7151C0.141844 13.9653 0 14.3058 0 14.661C0 15.0162 0.141844 15.3568 0.394017 15.6069C0.644131 15.8591 0.984596 16.001 1.33977 16.001C1.69494 16.001 2.03541 15.8591 2.28552 15.6069L8 9.87829L13.7145 15.6069C13.9646 15.8591 14.3051 16.001 14.6602 16.001C15.0154 16.001 15.3559 15.8591 15.606 15.6069C15.8582 15.3568 16 15.0162 16 14.661C16 14.3058 15.8582 13.9653 15.606 13.7151L9.87818 7.99984Z" fill="#8999B0" />
        </svg>