
    <svg
      xmlns="http://www.w3.org/2000/svg"
      width="16"
      height="16"
      viewBox="0 0 24 24"
      fill="none"
    >
      <path
        d="M12 2.00098C10.6868 2.00098 9.38641 2.25963 8.17315 2.76218C6.9599 3.26473 5.85751 4.00132 4.92892 4.92991C3.05356 6.80527 1.99999 9.34881 1.99999 12.001C1.99125 14.3101 2.79078 16.5495 4.25999 18.331L2.25999 20.331C2.12123 20.4716 2.02723 20.6502 1.98986 20.8442C1.95249 21.0382 1.97341 21.2389 2.04999 21.421C2.13305 21.6009 2.26769 21.7521 2.43683 21.8554C2.60598 21.9586 2.80199 22.0093 2.99999 22.001H12C14.6522 22.001 17.1957 20.9474 19.0711 19.072C20.9464 17.1967 22 14.6531 22 12.001C22 9.34881 20.9464 6.80527 19.0711 4.92991C17.1957 3.05454 14.6522 2.00098 12 2.00098Z"
        fill='inherit'
      />
    </svg>