
    <svg
      xmlns="http://www.w3.org/2000/svg"
      width="24"
      height="24"
      viewBox="0 0 24 24"
      fill="none"
    >
      <path
        d="M12 2.00098C10.6868 2.00098 9.38641 2.25963 8.17315 2.76218C6.9599 3.26473 5.85751 4.00132 4.92892 4.92991C3.05356 6.80527 1.99999 9.34881 1.99999 12.001C1.99125 14.3101 2.79078 16.5495 4.25999 18.331L2.25999 20.331C2.12123 20.4716 2.02723 20.6502 1.98986 20.8442C1.95249 21.0382 1.97341 21.2389 2.04999 21.421C2.13305 21.6009 2.26769 21.7521 2.43683 21.8554C2.60598 21.9586 2.80199 22.0093 2.99999 22.001H12C14.6522 22.001 17.1957 20.9474 19.0711 19.072C20.9464 17.1967 22 14.6531 22 12.001C22 9.34881 20.9464 6.80527 19.0711 4.92991C17.1957 3.05454 14.6522 2.00098 12 2.00098ZM12 20.001H5.40999L6.33999 19.071C6.52624 18.8836 6.63078 18.6302 6.63078 18.366C6.63078 18.1018 6.52624 17.8483 6.33999 17.661C5.03057 16.353 4.21516 14.6315 4.03268 12.7898C3.8502 10.948 4.31193 9.09998 5.33922 7.5605C6.3665 6.02102 7.89578 4.88534 9.6665 4.34695C11.4372 3.80856 13.3398 3.90078 15.0502 4.60789C16.7606 5.315 18.1728 6.59325 19.0464 8.22487C19.92 9.85648 20.2009 11.7405 19.8411 13.556C19.4814 15.3714 18.5033 17.006 17.0735 18.1812C15.6438 19.3564 13.8508 19.9995 12 20.001Z"
        fill="white"
      />
    </svg>