
<svg xmlns="http://www.w3.org/2000/svg" width="17" height="16" viewBox="0 0 17 16" fill="none">
<path d="M10.3782 7.99886L16.106 2.28357C16.6283 1.76117 16.6283 0.914198 16.106 0.391799C15.5837 -0.1306 14.7368 -0.1306 14.2145 0.391799L8.5 6.12041L2.78552 0.391799C2.2632 -0.1306 1.41634 -0.1306 0.894017 0.391799C0.371692 0.914198 0.371692 1.76117 0.894017 2.28357L6.62182 7.99886L0.894017 13.7142C0.641844 13.9643 0.5 14.3048 0.5 14.66C0.5 15.0153 0.641844 15.3558 0.894017 15.6059C1.14413 15.8581 1.4846 16 1.83977 16C2.19494 16 2.53541 15.8581 2.78552 15.6059L8.5 9.87731L14.2145 15.6059C14.4646 15.8581 14.8051 16 15.1602 16C15.5154 16 15.8559 15.8581 16.106 15.6059C16.3582 15.3558 16.5 15.0153 16.5 14.66C16.5 14.3048 16.3582 13.9643 16.106 13.7142L10.3782 7.99886Z" fill="#DBE4EC" />
</svg>
