
    <svg
      width="24"
      height="24"
      viewBox="0 0 24 24"
      fill="none"
      xmlns="http://www.w3.org/2000/svg"
      
    >
      <path
        fillRule="evenodd"
        clipRule="evenodd"
        d="M15.5535 5.45187L17.8368 7.7352C18.4752 8.34334 18.5012 9.35325 17.8952 9.99354L10.3952 17.4935C10.1235 17.7629 9.7675 17.9306 9.38684 17.9685L5.91184 18.2852H5.83684C5.61534 18.2865 5.40244 18.1995 5.24517 18.0435C5.06937 17.8684 4.98078 17.624 5.00351 17.3769L5.36184 13.9019C5.39976 13.5212 5.56748 13.1652 5.83684 12.8935L13.3368 5.39354C13.9834 4.84733 14.9366 4.87241 15.5535 5.45187ZM12.7702 8.2852L15.0035 10.5185L16.6702 8.89354L14.3952 6.61854L12.7702 8.2852Z"
        fill='inherit'
      />
    </svg>
