
        <svg xmlns="http://www.w3.org/2000/svg" width="24" height="24" viewBox="0 0 24 24" fill="none">
            <path d="M19.74 7.33116L15.3 2.33116C15.2065 2.22756 15.0924 2.14469 14.9649 2.08785C14.8375 2.03102 14.6995 2.00149 14.56 2.00116H6.56C6.22775 1.99719 5.89797 2.05872 5.5895 2.18221C5.28103 2.30571 4.9999 2.48876 4.76218 2.72091C4.52446 2.95306 4.33479 3.22977 4.20402 3.53522C4.07324 3.84068 4.00392 4.16891 4 4.50116V19.5012C4.00392 19.8334 4.07324 20.1616 4.20402 20.4671C4.33479 20.7725 4.52446 21.0493 4.76218 21.2814C4.9999 21.5136 5.28103 21.6966 5.5895 21.8201C5.89797 21.9436 6.22775 22.0051 6.56 22.0012H17.44C17.7723 22.0051 18.102 21.9436 18.4105 21.8201C18.719 21.6966 19.0001 21.5136 19.2378 21.2814C19.4755 21.0493 19.6652 20.7725 19.796 20.4671C19.9268 20.1616 19.9961 19.8334 20 19.5012V8.00116C19.9994 7.75332 19.9067 7.51455 19.74 7.33116ZM14 4.00116L17.74 8.00116H14.74C14.6353 7.99483 14.5329 7.96772 14.4387 7.92139C14.3446 7.87506 14.2607 7.81045 14.1918 7.73132C14.1229 7.65219 14.0704 7.56014 14.0375 7.46053C14.0046 7.36092 13.9918 7.25575 14 7.15116V4.00116Z" fill="#8999B0" />
        </svg>