
    <svg
      xmlns="http://www.w3.org/2000/svg"
      width="24"
      height="24"
      viewBox="0 0 24 24"
      fill="none"
    >
      <path
        fillRule="evenodd"
        clipRule="evenodd"
        d="M5 9.00098H8C8.55 9.00098 9 8.62598 9 8.16764V4.83431C9 4.37598 8.55 4.00098 8 4.00098H5C4.45 4.00098 4 4.37598 4 4.83431V8.16764C4 8.62598 4.45 9.00098 5 9.00098ZM5 15.001H8C8.55 15.001 9 14.626 9 14.1676V10.8343C9 10.376 8.55 10.001 8 10.001H5C4.45 10.001 4 10.376 4 10.8343V14.1676C4 14.626 4.45 15.001 5 15.001ZM14 15.001H11C10.45 15.001 10 14.626 10 14.1676V10.8343C10 10.376 10.45 10.001 11 10.001H14C14.55 10.001 15 10.376 15 10.8343V14.1676C15 14.626 14.55 15.001 14 15.001ZM17 15.001H20C20.55 15.001 21 14.626 21 14.1676V10.8343C21 10.376 20.55 10.001 20 10.001H17C16.45 10.001 16 10.376 16 10.8343V14.1676C16 14.626 16.45 15.001 17 15.001ZM14 9.00098H11C10.45 9.00098 10 8.62598 10 8.16764V4.83431C10 4.37598 10.45 4.00098 11 4.00098H14C14.55 4.00098 15 4.37598 15 4.83431V8.16764C15 8.62598 14.55 9.00098 14 9.00098ZM16 4.83431V8.16764C16 8.62598 16.45 9.00098 17 9.00098H20C20.55 9.00098 21 8.62598 21 8.16764V4.83431C21 4.37598 20.55 4.00098 20 4.00098H17C16.45 4.00098 16 4.37598 16 4.83431ZM8 21.001H5C4.45 21.001 4 20.626 4 20.1676V16.8343C4 16.376 4.45 16.001 5 16.001H8C8.55 16.001 9 16.376 9 16.8343V20.1676C9 20.626 8.55 21.001 8 21.001ZM11 21.001H14C14.55 21.001 15 20.626 15 20.1676V16.8343C15 16.376 14.55 16.001 14 16.001H11C10.45 16.001 10 16.376 10 16.8343V20.1676C10 20.626 10.45 21.001 11 21.001ZM20 21.001H17C16.45 21.001 16 20.626 16 20.1676V16.8343C16 16.376 16.45 16.001 17 16.001H20C20.55 16.001 21 16.376 21 16.8343V20.1676C21 20.626 20.55 21.001 20 21.001Z"
        fill="#8999B0"
      />
    </svg>