<svg xmlns="http://www.w3.org/2000/svg" width="25" height="24" viewBox="0 0 25 24" fill="none">
    <path d="M9.99935 11.1667C11.8403 11.1667 13.3327 9.67428 13.3327 7.83333C13.3327 5.99238 11.8403 4.5 9.99935 4.5C8.1584 4.5 6.66602 5.99238 6.66602 7.83333C6.66602 9.67428 8.1584 11.1667 9.99935 11.1667Z" fill="#8999B0"/>
    <path d="M16.666 12.833C18.0467 12.833 19.166 11.7137 19.166 10.333C19.166 8.9523 18.0467 7.83301 16.666 7.83301C15.2853 7.83301 14.166 8.9523 14.166 10.333C14.166 11.7137 15.2853 12.833 16.666 12.833Z" fill="#8999B0"/>
    <path d="M19.9993 18.6664C20.4596 18.6664 20.8327 18.2933 20.8327 17.8331C20.8313 16.2442 19.9264 14.7944 18.4996 14.0952C17.0729 13.3959 15.3726 13.569 14.116 14.5414C12.4469 12.8789 9.94161 12.3835 7.76537 13.2857C5.58914 14.1879 4.1692 16.3106 4.16602 18.6664C4.16602 19.1267 4.53911 19.4998 4.99935 19.4998H14.9993C15.4596 19.4998 15.8327 19.1267 15.8327 18.6664" fill="#8999B0"/>
    </svg>