
    <svg
      xmlns="http://www.w3.org/2000/svg"
      width="24"
      height="24"
      viewBox="0 0 24 24"
      fill="none"
    >
      <path
        fillRule="evenodd"
        clipRule="evenodd"
        d="M12 2.00098C17.523 2.00098 22 6.47798 22 12.001C22 17.524 17.523 22.001 12 22.001C6.477 22.001 2 17.524 2 12.001C2 6.47798 6.477 2.00098 12 2.00098ZM12 4.00098C7.58172 4.00098 4 7.5827 4 12.001C4 16.4193 7.58172 20.001 12 20.001C16.4183 20.001 20 16.4193 20 12.001C20 7.5827 16.4183 4.00098 12 4.00098ZM16.9013 13.9946C17.0104 13.4532 16.5523 13.001 16 13.0009H7.99997C7.4477 13.001 6.98957 13.4532 7.09872 13.9946C7.55951 16.28 9.57878 18.001 12 18.001C14.4212 18.001 16.4405 16.28 16.9013 13.9946Z"
        fill="#8999B0"
      />
    </svg>