<svg xmlns="http://www.w3.org/2000/svg" width="25" height="24" viewBox="0 0 25 24" fill="none">
    <path d="M13.049 1.19267L22.2037 8.89486C22.3916 9.05199 22.5 9.2834 22.5 9.52723V19.7355C22.5 20.1923 21.8584 20.8382 21.3981 20.8382L15.0325 20.8382L15.0326 19.1834C16.8092 19.1837 18.3929 19.184 19.3465 19.1841L19.563 19.1841C19.6649 19.1841 19.7573 19.1841 19.8394 19.1841L20.0539 19.1842C20.0741 19.1842 20.0931 19.1842 20.1109 19.1842L20.279 19.1842C20.7242 19.1842 20.8333 18.8679 20.8333 18.5836L20.8333 10.1042C20.8329 9.89062 20.8223 9.80241 20.5652 9.58965C20.3883 9.44327 17.7537 7.26324 12.6614 3.04956C12.6079 3.00527 12.4956 2.91948 12.3362 3.05156C12.2311 3.13863 9.56773 5.34248 4.34601 9.66313C4.28656 9.71233 4.16667 9.87718 4.16785 10.1245C4.1793 12.5099 4.18439 14.3821 4.18465 15.741L4.18465 15.9191C4.18445 17.4659 4.17763 18.3006 4.16667 18.4234C4.13504 18.7776 4.1983 19.1741 4.92799 19.1792C5.18255 19.1809 9.40192 19.1822 13.3539 19.1831L13.3538 20.8382L3.6107 20.8382C3.15046 20.8382 2.5 20.1923 2.5 19.7355V9.52723C2.5 9.2834 2.60843 9.05199 2.79631 8.89486L11.9749 1.19267C12.2852 0.933172 12.7387 0.933172 13.049 1.19267Z" fill="#8999B0"/>
    <path fill-rule="evenodd" clip-rule="evenodd" d="M12.9185 12.1146L9.38196 13.0762C9.2319 13.117 9.12776 13.2532 9.12776 13.4087V20.5389C9.12776 20.6865 9.22174 20.8177 9.36148 20.8652L12.898 22.0671C13.0782 22.1283 13.2739 22.0319 13.3352 21.8517C13.3473 21.816 13.3535 21.7785 13.3535 21.7408V12.4472C13.3535 12.2568 13.1992 12.1025 13.0089 12.1025C12.9784 12.1025 12.948 12.1066 12.9185 12.1146Z" fill="#8999B0"/>
    </svg>