
    <svg
      xmlns="http://www.w3.org/2000/svg"
      width="24"
      height="24"
      viewBox="0 0 24 24"
      fill="none"
    >
      <path
        fillRule="evenodd"
        clipRule="evenodd"
        d="M12 2.00098C6.47715 2.00098 2 6.47813 2 12.001C2 17.5238 6.47715 22.001 12 22.001C17.5228 22.001 22 17.5238 22 12.001C22 9.34881 20.9464 6.80527 19.0711 4.92991C17.1957 3.05454 14.6522 2.00098 12 2.00098ZM13 16.001C13 16.5533 12.5523 17.001 12 17.001C11.4477 17.001 11 16.5533 11 16.001V11.001C11 10.4487 11.4477 10.001 12 10.001C12.5523 10.001 13 10.4487 13 11.001V16.001ZM11 8.00098C11 8.55326 11.4477 9.00098 12 9.00098C12.5523 9.00098 13 8.55326 13 8.00098C13 7.44869 12.5523 7.00098 12 7.00098C11.4477 7.00098 11 7.44869 11 8.00098Z"
        fill="#8999B0"
      />
    </svg>
