
        <svg xmlns="http://www.w3.org/2000/svg" width="24" height="24" viewBox="0 0 24 24" fill="none">
            <path d="M20 9.00098H11C9.89543 9.00098 9 9.89641 9 11.001V20.001C9 21.1055 9.89543 22.001 11 22.001H20C21.1046 22.001 22 21.1055 22 20.001V11.001C22 9.89641 21.1046 9.00098 20 9.00098Z" stroke="#8999B0" strokeWidth="2" strokeLinecap="round" strokeLinejoin="round" />
            <path d="M5 15.001H4C3.46957 15.001 2.96086 14.7903 2.58579 14.4152C2.21071 14.0401 2 13.5314 2 13.001V4.00098C2 3.47054 2.21071 2.96184 2.58579 2.58676C2.96086 2.21169 3.46957 2.00098 4 2.00098H13C13.5304 2.00098 14.0391 2.21169 14.4142 2.58676C14.7893 2.96184 15 3.47054 15 4.00098V5.00098" stroke="#8999B0" strokeWidth="2" strokeLinecap="round" strokeLinejoin="round" />
        </svg>