
        <svg xmlns="http://www.w3.org/2000/svg" width="24" height="24" viewBox="0 0 24 24" fill="none">
            <path d="M20 11.001C19.4477 11.001 19 11.4487 19 12.001V18.001C19 18.5533 18.5523 19.001 18 19.001H6C5.44772 19.001 5 18.5533 5 18.001V6.00098C5 5.44869 5.44772 5.00098 6 5.00098H12C12.5523 5.00098 13 4.55326 13 4.00098C13 3.44869 12.5523 3.00098 12 3.00098H6C4.34315 3.00098 3 4.34412 3 6.00098V18.001C3 19.6578 4.34315 21.001 6 21.001H18C19.6569 21.001 21 19.6578 21 18.001V12.001C21 11.4487 20.5523 11.001 20 11.001Z" fill="#8999B0" />
            <path d="M15.9999 5.00098H17.5799L11.2899 11.281C11.1006 11.4687 10.9941 11.7243 10.9941 11.991C10.9941 12.2576 11.1006 12.5132 11.2899 12.701C11.4777 12.8903 11.7333 12.9968 11.9999 12.9968C12.2666 12.9968 12.5222 12.8903 12.7099 12.701L18.9999 6.42098V8.00098C18.9999 8.55326 19.4477 9.00098 19.9999 9.00098C20.5522 9.00098 20.9999 8.55326 20.9999 8.00098V4.00098C20.9999 3.44869 20.5522 3.00098 19.9999 3.00098H15.9999C15.4477 3.00098 14.9999 3.44869 14.9999 4.00098C14.9999 4.55326 15.4477 5.00098 15.9999 5.00098Z" fill="#8999B0" />
        </svg>