
    <svg
      xmlns="http://www.w3.org/2000/svg"
      width="24"
      height="24"
      viewBox="0 0 24 24"
      fill="none"
    >
      <circle cx="12.0003" cy="9.62507" r="1.12507" fill="#8999B0" />
      <path
        fillRule="evenodd"
        clipRule="evenodd"
        d="M6 9.94035C6.03291 6.6499 8.70974 3.99984 12.0004 4C15.291 3.99984 17.9678 6.6499 18.0007 9.94035C18.0007 14.0506 12.7504 18.6259 12.4879 18.8209C12.2072 19.061 11.7935 19.061 11.5128 18.8209L11.5116 18.8198C11.2693 18.6099 6 14.0434 6 9.94035ZM9.37522 9.62533C9.37522 11.0752 10.5505 12.2505 12.0004 12.2505C12.6966 12.2505 13.3643 11.9739 13.8566 11.4816C14.349 10.9893 14.6255 10.3216 14.6255 9.62533C14.6255 8.1755 13.4502 7.00018 12.0004 7.00018C10.5505 7.00018 9.37522 8.1755 9.37522 9.62533Z"
        fill="#8999B0"
      />
    </svg>