
    <svg xmlns="http://www.w3.org/2000/svg" width="24" height="24" viewBox="0 0 24 24" fill="none">
      <path d="M12.3 22.0007H12.2C10.8285 21.9902 9.4729 21.7062 8.21254 21.1653C6.95219 20.6245 5.81242 19.8375 4.85998 18.8507C3.09382 16.9619 2.08986 14.486 2.04184 11.9006C1.99383 9.31519 2.90517 6.80365 4.59998 4.85066C5.69186 3.627 7.06451 2.68674 8.59998 2.11066C8.77914 2.04172 8.97436 2.0258 9.16232 2.06481C9.35029 2.10382 9.52305 2.19611 9.65998 2.33066C9.78679 2.45998 9.87611 2.62132 9.91838 2.79744C9.96065 2.97357 9.95429 3.15787 9.89998 3.33066C9.35193 4.83159 9.24335 6.45771 9.58698 8.01818C9.9306 9.57866 10.7122 11.0088 11.84 12.1407C12.9783 13.265 14.4118 14.0439 15.9745 14.3873C17.5372 14.7306 19.1652 14.6243 20.67 14.0807C20.8491 14.0176 21.0424 14.0069 21.2274 14.0497C21.4124 14.0925 21.5814 14.1871 21.7146 14.3224C21.8478 14.4577 21.9398 14.6281 21.9797 14.8138C22.0196 14.9994 22.0058 15.1926 21.94 15.3707C21.4291 16.7344 20.6311 17.9723 19.6 19.0007C18.6408 19.957 17.5021 20.7143 16.2494 21.2291C14.9966 21.744 13.6544 22.0062 12.3 22.0007Z" fill="#8999B0" />
    </svg>