
    <svg
      xmlns="http://www.w3.org/2000/svg"
      width="24"
      height="24"
      viewBox="0 0 24 24"
      fill="none"
    >
      <path
        fillRule="evenodd"
        clipRule="evenodd"
        d="M2 12.001C2 17.5238 6.47715 22.001 12 22.001C17.5228 22.001 22 17.5238 22 12.001C22 6.47813 17.5228 2.00098 12 2.00098C6.47715 2.00098 2 6.47813 2 12.001ZM4 12.001C4 7.5827 7.58172 4.00098 12 4.00098C16.4183 4.00098 20 7.5827 20 12.001C20 16.4193 16.4183 20.001 12 20.001C7.58172 20.001 4 16.4193 4 12.001Z"
        fill="#8999B0"
      />
      <rect
        x="19.0004"
        y="6.41504"
        width="18"
        height="2"
        transform="rotate(135 19.0004 6.41504)"
        fill="#8999B0"
      />
      <path
        d="M11.9999 21.0009C11.4994 19.5009 12.5 20.5009 12.0931 18.3567C12.0062 17.8986 12.0931 17.463 12.0931 17.3076"
        stroke="#8999B0"
        strokeWidth="1.2"
        strokeLinecap="round"
      />
      <path
        d="M11.9758 16.0256C12.2867 16.2975 12.885 16.8881 12.7918 17.0746C12.6752 17.3078 11.2765 17.3078 11.1599 17.0746C11.0666 16.8881 11.7427 16.2975 12.0924 16.0256C10.6547 15.7147 7.77942 14.1838 7.77942 10.547C7.77942 6.00098 11.8594 6.00098 12.0924 6.00098C13.0001 6.00098 16.1721 6.5838 16.1721 10.547C16.1721 14.5102 12.4422 16.0256 11.9758 16.0256Z"
        stroke="#8999B0"
        strokeWidth="1.2"
        strokeLinecap="round"
      />
      <path
        d="M9.49963 10.501C9.49963 9.56846 9.6346 7.96724 11.4996 7.50098"
        stroke="#8999B0"
        strokeLinecap="round"
      />
    </svg>