
    <svg
      xmlns="http://www.w3.org/2000/svg"
      width="24"
      height="24"
      viewBox="0 0 24 24"
      fill="none"
    >
      <path
        fillRule="evenodd"
        clipRule="evenodd"
        d="M2 12.001C2 17.5238 6.47715 22.001 12 22.001C17.5228 22.001 22 17.5238 22 12.001C22 6.47813 17.5228 2.00098 12 2.00098C6.47715 2.00098 2 6.47813 2 12.001ZM4 12.001C4 7.5827 7.58172 4.00098 12 4.00098C16.4183 4.00098 20 7.5827 20 12.001C20 16.4193 16.4183 20.001 12 20.001C7.58172 20.001 4 16.4193 4 12.001Z"
        fill="#8999B0"
      />
      <ellipse
        cx="14"
        cy="9.00098"
        rx="1"
        ry="2"
        fill="#8999B0"
        stroke="#8999B0"
      />
      <ellipse
        cx="10"
        cy="9.00098"
        rx="1"
        ry="2"
        fill="#8999B0"
        stroke="#8999B0"
      />
      <ellipse
        cx="7"
        cy="12.501"
        rx="1"
        ry="1.5"
        fill="#8999B0"
        stroke="#8999B0"
      />
      <ellipse
        cx="17"
        cy="12.501"
        rx="1"
        ry="1.5"
        fill="#8999B0"
        stroke="#8999B0"
      />
      <path
        d="M8.69269 14.1121C8.81268 13.8365 8.99329 13.5914 9.22108 13.3951L10.6946 12.1256C11.4448 11.4793 12.5552 11.4793 13.3054 12.1256L14.7789 13.3951C15.0067 13.5914 15.1873 13.8365 15.3073 14.1121L15.782 15.2028C16.357 16.5238 15.3889 18.001 13.9482 18.001H10.0518C8.61109 18.001 7.64299 16.5238 8.21797 15.2028L8.69269 14.1121Z"
        fill="#8999B0"
      />
      <rect
        x="19.0004"
        y="6.41504"
        width="18"
        height="2"
        transform="rotate(135 19.0004 6.41504)"
        fill="#8999B0"
      />
    </svg>