
    <svg
      xmlns="http://www.w3.org/2000/svg"
      width="24"
      height="24"
      viewBox="0 0 24 24"
      fill="none"
    >
      <path
        d="M7.99972 9.00098C7.83305 9.16764 7.59972 9.60098 7.99972 10.001C7.49981 10.001 6.5 9.80098 6.5 9.00098C6.5 8.00098 7 8.00098 7.5 7.50098C8 7.00098 8 6.50098 7.5 6.00098C9 6.00098 9.5 6.50098 9.5 7.00098C9.5 7.40098 8.49967 8.50098 7.99972 9.00098Z"
        fill="#8999B0"
      />
      <path
        fillRule="evenodd"
        clipRule="evenodd"
        d="M2 12.001C2 17.5238 6.47715 22.001 12 22.001C17.5228 22.001 22 17.5238 22 12.001C22 6.47813 17.5228 2.00098 12 2.00098C6.47715 2.00098 2 6.47813 2 12.001ZM4 12.001C4 7.5827 7.58172 4.00098 12 4.00098C16.4183 4.00098 20 7.5827 20 12.001C20 16.4193 16.4183 20.001 12 20.001C7.58172 20.001 4 16.4193 4 12.001Z"
        fill="#8999B0"
      />
      <rect
        x="19.0004"
        y="6.41504"
        width="18"
        height="2"
        transform="rotate(135 19.0004 6.41504)"
        fill="#8999B0"
      />
      <rect x="9" y="11.001" width="9" height="2.5" fill="#8999B0" />
      <rect x="6.5" y="11.001" width="1.5" height="2.5" fill="#8999B0" />
    </svg>