
        <svg xmlns="http://www.w3.org/2000/svg" width="24" height="24" viewBox="0 0 24 24" fill="none">
            <ellipse cx="14.7272" cy="7.72825" rx="1.36364" ry="2.72727" fill="#8999B0" stroke="#8999B0" strokeWidth="1.36364" />
            <ellipse cx="9.27233" cy="7.72825" rx="1.36364" ry="2.72727" fill="#8999B0" stroke="#8999B0" strokeWidth="1.36364" />
            <ellipse cx="5.182" cy="12.5005" rx="1.36364" ry="2.04545" fill="#8999B0" stroke="#8999B0" strokeWidth="1.36364" />
            <ellipse cx="18.8186" cy="12.5005" rx="1.36364" ry="2.04545" fill="#8999B0" stroke="#8999B0" strokeWidth="1.36364" />
            <path d="M8.3375 14.2641C8.44557 14.0889 8.57312 13.9265 8.71772 13.7801L10.0591 12.4212C11.1269 11.3395 12.873 11.3394 13.9409 12.4211L15.2824 13.78C15.4271 13.9265 15.5547 14.089 15.6628 14.2642L16.5618 15.7215C17.8078 17.7416 16.0576 20.279 13.7267 19.8318L12.5138 19.5991C12.1743 19.5339 11.8255 19.5339 11.486 19.5991L10.2735 19.8317C7.94253 20.279 6.19232 17.7414 7.43848 15.7214L8.3375 14.2641Z" fill="#8999B0" />
        </svg>