<svg width="32" height="25" viewBox="0 0 32 25" fill="none" xmlns="http://www.w3.org/2000/svg">
<path d="M0.286577 25V18.608C0.286577 16.6667 0.629853 14.607 1.31641 12.429C2.02663 10.2273 3.04463 8.10843 4.37038 6.07244C5.71982 4.01278 7.3415 2.22538 9.23544 0.710225L13.7809 4.40341C12.2894 6.53409 10.9873 8.75947 9.87465 11.0795C8.78563 13.3759 8.24112 15.8381 8.24112 18.4659V25H0.286577ZM18.4684 25V18.608C18.4684 16.6667 18.8117 14.607 19.4982 12.429C20.2085 10.2273 21.2264 8.10843 22.5522 6.07244C23.9016 4.01278 25.5233 2.22538 27.4173 0.710225L31.9627 4.40341C30.4712 6.53409 29.1692 8.75947 28.0565 11.0795C26.9674 13.3759 26.4229 15.8381 26.4229 18.4659V25H18.4684Z" fill="url(#paint0_linear_394_11247)"/>
<defs>
<linearGradient id="paint0_linear_394_11247" x1="-5" y1="-22" x2="37.1545" y2="-20.8909" gradientUnits="userSpaceOnUse">
<stop stop-color="#C345FF"/>
<stop offset="0.410575" stop-color="#6666FF"/>
</linearGradient>
</defs>
</svg>
