
    <svg
      xmlns="http://www.w3.org/2000/svg"
      width="24"
      height="24"
      viewBox="0 0 24 24"
      fill="none"
    >
      <path
        fillRule="evenodd"
        clipRule="evenodd"
        d="M2 12.001C2 6.47813 6.47715 2.00098 12 2.00098C14.6522 2.00098 17.1957 3.05454 19.0711 4.92991C20.9464 6.80527 22 9.34881 22 12.001C22 17.5238 17.5228 22.001 12 22.001C6.47715 22.001 2 17.5238 2 12.001ZM4 12.001C4 16.4193 7.58172 20.001 12 20.001C14.1217 20.001 16.1566 19.1581 17.6569 17.6578C19.1571 16.1575 20 14.1227 20 12.001C20 7.5827 16.4183 4.00098 12 4.00098C7.58172 4.00098 4 7.5827 4 12.001Z"
        fill="#8999B0"
      />
      <path
        d="M12 7.00098C9.23858 7.00098 7 9.23955 7 12.001C7 14.7624 9.23858 17.001 12 17.001C14.7614 17.001 17 14.7624 17 12.001C17 9.23955 14.7614 7.00098 12 7.00098V7.00098Z"
        fill="#8999B0"
      />
    </svg>