
    <svg
      xmlns="http://www.w3.org/2000/svg"
      width="24"
      height="24"
      viewBox="0 0 24 24"
      fill="none"
    >
      <path
        fillRule="evenodd"
        clipRule="evenodd"
        d="M17.31 15.901L20.71 19.291C20.8993 19.4787 21.0058 19.7343 21.0058 20.001C21.0058 20.2676 20.8993 20.5232 20.71 20.711C20.5222 20.9003 20.2666 21.0068 20 21.0068C19.7334 21.0068 19.4778 20.9003 19.29 20.711L15.9 17.311C14.5025 18.408 12.7767 19.0032 11 19.001C6.58172 19.001 3 15.4193 3 11.001C3 6.5827 6.58172 3.00098 11 3.00098C15.4183 3.00098 19 6.5827 19 11.001C19.0022 12.7776 18.407 14.5034 17.31 15.901ZM11 5.00098C7.68629 5.00098 5 7.68727 5 11.001C5 14.3147 7.68629 17.001 11 17.001C14.3137 17.001 17 14.3147 17 11.001C17 7.68727 14.3137 5.00098 11 5.00098Z"
        fill="#8999B0"
      />
    </svg>
