
    <svg
      xmlns="http://www.w3.org/2000/svg"
      width="24"
      height="24"
      viewBox="0 0 24 24"
      fill="none"
    >
      <path
        fillRule="evenodd"
        clipRule="evenodd"
        d="M17.1 20.8912C17.2424 20.9641 17.4001 21.0018 17.56 21.0012C17.7809 21.0114 17.999 20.9481 18.18 20.8212C18.4968 20.5943 18.6529 20.204 18.58 19.8212L17.58 14.1912L21.7 10.1912C21.962 9.92978 22.0581 9.54509 21.95 9.19118C21.8318 8.8286 21.5176 8.56485 21.14 8.51118L15.44 7.68118L12.9 2.56118C12.7329 2.21619 12.3834 1.99707 12 1.99707C11.6167 1.99707 11.2671 2.21619 11.1 2.56118L8.59003 7.69118L2.89003 8.52118C2.51246 8.57485 2.19828 8.8386 2.08003 9.20118C1.97192 9.55509 2.06809 9.93978 2.33003 10.2012L6.45003 14.2012L5.45003 19.8312C5.38327 20.207 5.53629 20.5881 5.84446 20.8134C6.15263 21.0387 6.56217 21.0688 6.90003 20.8912L12 18.2212L17.1 20.8912ZM12.46 16.2112C12.3189 16.1351 12.1603 16.0971 12 16.1012C11.8329 16.0679 11.6598 16.0818 11.5 16.1412L7.73003 18.1412L8.45003 13.9812C8.50675 13.6548 8.39815 13.3215 8.16003 13.0912L5.16003 10.1612L9.36003 9.54118C9.6832 9.49443 9.96319 9.29284 10.11 9.00118L12 5.25118L13.89 9.00118C14.024 9.2903 14.2877 9.49829 14.6 9.56118L18.8 10.1812L15.8 13.1112C15.5619 13.3415 15.4533 13.6748 15.51 14.0012L16.23 18.2112L12.46 16.2112Z"
        fill="#8999B0"
      />
    </svg>