
        <svg xmlns="http://www.w3.org/2000/svg" width="24" height="24" viewBox="0 0 24 24" fill="none">
            <path d="M17.56 21.0012C17.4001 21.0018 17.2424 20.9641 17.1 20.8912L12 18.2212L6.90003 20.8912C6.56217 21.0688 6.15263 21.0387 5.84446 20.8134C5.53629 20.5881 5.38327 20.207 5.45003 19.8312L6.45003 14.2012L2.33003 10.2012C2.06809 9.93978 1.97192 9.55509 2.08003 9.20118C2.19828 8.8386 2.51246 8.57485 2.89003 8.52118L8.59003 7.69118L11.1 2.56118C11.2671 2.21619 11.6167 1.99707 12 1.99707C12.3834 1.99707 12.7329 2.21619 12.9 2.56118L15.44 7.68118L21.14 8.51118C21.5176 8.56485 21.8318 8.8286 21.95 9.19118C22.0581 9.54509 21.962 9.92978 21.7 10.1912L17.58 14.1912L18.58 19.8212C18.6529 20.204 18.4968 20.5943 18.18 20.8212C17.999 20.9481 17.7809 21.0114 17.56 21.0012Z" fill="#8999B0" />
        </svg>