<svg xmlns="http://www.w3.org/2000/svg" width="40" height="40" viewBox="0 0 40 40" fill="none">
<path d="M20.915 1.98844L36.1729 14.8254C36.486 15.0873 36.6667 15.473 36.6667 15.8794V32.8932C36.6667 33.6544 35.5973 34.731 34.8303 34.731L24.2209 34.7309L24.221 31.973C27.1821 31.9735 29.8215 31.9739 31.4109 31.9741L31.7717 31.9742C31.9416 31.9742 32.0956 31.9742 32.2324 31.9742L32.5899 31.9743C32.6236 31.9743 32.6553 31.9743 32.6848 31.9743L32.9651 31.9743C33.707 31.9743 33.8889 31.4471 33.8889 30.9733L33.8889 16.841C33.8882 16.485 33.8706 16.338 33.442 15.9834C33.1472 15.7394 28.7562 12.106 20.269 5.08326C20.1798 5.00944 19.9927 4.86644 19.727 5.08659C19.5519 5.23169 15.1129 8.90479 6.41006 16.1059C6.31098 16.1879 6.11115 16.4626 6.11313 16.8749C6.13221 20.8505 6.14069 23.9708 6.14112 26.2356L6.14113 26.5325C6.14079 29.1104 6.12942 30.5017 6.11115 30.7063C6.05844 31.2967 6.16387 31.9575 7.38003 31.9659C7.8043 31.9688 14.8366 31.971 21.4232 31.9724L21.4231 34.7309L5.18453 34.731C4.41747 34.731 3.33337 33.6544 3.33337 32.8932V15.8794C3.33337 15.473 3.51409 15.0873 3.82722 14.8254L19.1249 1.98844C19.642 1.55594 20.3979 1.55594 20.915 1.98844Z" fill="#8999B0"/>
<path fill-rule="evenodd" clip-rule="evenodd" d="M20.6974 20.191L14.8032 21.7936C14.5531 21.8616 14.3796 22.0887 14.3796 22.3478V34.2315C14.3796 34.4775 14.5362 34.6961 14.7691 34.7753L20.6633 36.7785C20.9636 36.8806 21.2899 36.7199 21.3919 36.4195C21.4122 36.36 21.4225 36.2976 21.4225 36.2347V20.7453C21.4225 20.428 21.1653 20.1709 20.8481 20.1709C20.7972 20.1709 20.7466 20.1777 20.6974 20.191Z" fill="#8999B0"/>
</svg>