
        <svg xmlns="http://www.w3.org/2000/svg" width="24" height="24" viewBox="0 0 24 24" fill="none">
            <path d="M12 6.00098C12.5523 6.00098 13 5.55326 13 5.00098V3.00098C13 2.44869 12.5523 2.00098 12 2.00098C11.4477 2.00098 11 2.44869 11 3.00098V5.00098C11 5.55326 11.4477 6.00098 12 6.00098Z" fill="#8999B0" />
            <path d="M21 11.001H19C18.4477 11.001 18 11.4487 18 12.001C18 12.5533 18.4477 13.001 19 13.001H21C21.5523 13.001 22 12.5533 22 12.001C22 11.4487 21.5523 11.001 21 11.001Z" fill="#8999B0" />
            <path d="M6 12.001C6 11.4487 5.55228 11.001 5 11.001H3C2.44772 11.001 2 11.4487 2 12.001C2 12.5533 2.44772 13.001 3 13.001H5C5.55228 13.001 6 12.5533 6 12.001Z" fill="#8999B0" />
            <path d="M6.21999 5.00117C5.81406 4.61733 5.17383 4.63524 4.78999 5.04117C4.40615 5.4471 4.42406 6.08733 4.82999 6.47117L6.26999 7.86117C6.46524 8.0497 6.72874 8.15077 6.99999 8.14117C7.27218 8.14013 7.53218 8.02819 7.71999 7.83117C8.10771 7.44113 8.10771 6.81121 7.71999 6.42117L6.21999 5.00117Z" fill="#8999B0" />
            <path d="M17 8.14074C17.2575 8.13971 17.5046 8.03942 17.69 7.86074L19.13 6.47074C19.4946 6.08981 19.5007 5.49126 19.1441 5.10291C18.7874 4.71455 18.1905 4.66984 17.78 5.00074L16.34 6.42074C15.9523 6.81077 15.9523 7.4407 16.34 7.83074C16.5131 8.01346 16.7488 8.12416 17 8.14074Z" fill="#8999B0" />
            <path d="M12 18.001C11.4477 18.001 11 18.4487 11 19.001V21.001C11 21.5533 11.4477 22.001 12 22.001C12.5523 22.001 13 21.5533 13 21.001V19.001C13 18.4487 12.5523 18.001 12 18.001Z" fill="#8999B0" />
            <path d="M17.73 16.1411C17.3324 15.7572 16.6989 15.7684 16.315 16.1661C15.9312 16.5637 15.9424 17.1972 16.34 17.5811L17.78 19.0011C17.9654 19.1797 18.2125 19.28 18.47 19.2811C18.7407 19.2826 19.0005 19.1744 19.19 18.9811C19.3793 18.7933 19.4858 18.5377 19.4858 18.2711C19.4858 18.0044 19.3793 17.7488 19.19 17.5611L17.73 16.1411Z" fill="#8999B0" />
            <path d="M6.26998 16.1413L4.82998 17.5313C4.64067 17.7191 4.53418 17.9747 4.53418 18.2413C4.53418 18.508 4.64067 18.7636 4.82998 18.9513C5.01948 19.1447 5.27926 19.2529 5.54998 19.2513C5.79649 19.2534 6.03509 19.1644 6.21998 19.0013L7.65998 17.6113C8.05762 17.2275 8.06882 16.594 7.68498 16.1963C7.30114 15.7987 6.66762 15.7875 6.26998 16.1713V16.1413Z" fill="#8999B0" />
            <path d="M12 8.00098C9.79086 8.00098 8 9.79184 8 12.001C8 14.2101 9.79086 16.001 12 16.001C14.2091 16.001 16 14.2101 16 12.001C16 9.79184 14.2091 8.00098 12 8.00098V8.00098Z" fill="#8999B0" />
        </svg>