<svg xmlns="http://www.w3.org/2000/svg" width="24" height="24" viewBox="0 0 24 24" fill="none">
    <path d="M9.49999 11.1675C11.3409 11.1675 12.8333 9.67514 12.8333 7.83419C12.8333 5.99324 11.3409 4.50085 9.49999 4.50085C7.65904 4.50085 6.16666 5.99324 6.16666 7.83419C6.16666 9.67514 7.65904 11.1675 9.49999 11.1675Z" fill="inherit" />
    <path d="M16.1666 12.8342C17.5473 12.8342 18.6666 11.7149 18.6666 10.3342C18.6666 8.95352 17.5473 7.83423 16.1666 7.83423C14.7859 7.83423 13.6666 8.95352 13.6666 10.3342C13.6666 11.7149 14.7859 12.8342 16.1666 12.8342Z" fill="inherit" />
    <path d="M19.5 18.6675C19.9602 18.6675 20.3333 18.2944 20.3333 17.8342C20.332 16.2453 19.4271 14.7955 18.0003 14.0963C16.5735 13.397 14.8733 13.5701 13.6167 14.5425C11.9476 12.88 9.44225 12.3846 7.26601 13.2868C5.08978 14.189 3.66984 16.3117 3.66666 18.6675C3.66666 19.1278 4.03975 19.5009 4.49999 19.5009H14.5C14.9602 19.5009 15.3333 19.1278 15.3333 18.6675" fill="inherit" />
</svg>
