
    <svg
      xmlns="http://www.w3.org/2000/svg"
      width="24"
      height="24"
      viewBox="0 0 24 24"
      fill="none"
    >
      <path
        fillRule="evenodd"
        clipRule="evenodd"
        d="M6.4443 3.68628C8.08879 2.58747 10.0222 2.00098 12 2.00098C13.3132 2.00098 14.6136 2.25963 15.8268 2.76218C17.0401 3.26473 18.1425 4.00132 19.0711 4.92991C19.9997 5.85849 20.7363 6.96089 21.2388 8.17414C21.7413 9.3874 22 10.6878 22 12.001C22 13.9788 21.4135 15.9122 20.3147 17.5567C19.2159 19.2012 17.6541 20.4829 15.8268 21.2398C13.9996 21.9966 11.9889 22.1947 10.0491 21.8088C8.10929 21.423 6.32746 20.4706 4.92894 19.072C3.53041 17.6735 2.578 15.8917 2.19215 13.9519C1.8063 12.0121 2.00433 10.0014 2.76121 8.17414C3.51809 6.34688 4.79981 4.78509 6.4443 3.68628ZM7.55544 18.6527C8.87104 19.5318 10.4178 20.001 12 20.001C14.1217 20.001 16.1566 19.1581 17.6569 17.6578C19.1572 16.1575 20 14.1227 20 12.001C20 10.4187 19.5308 8.87201 18.6518 7.55641C17.7727 6.24082 16.5233 5.21544 15.0615 4.60994C13.5997 4.00444 11.9911 3.84601 10.4393 4.15469C8.88743 4.46338 7.46197 5.2253 6.34315 6.34412C5.22433 7.46294 4.4624 8.88841 4.15372 10.4403C3.84504 11.9921 4.00347 13.6006 4.60897 15.0624C5.21447 16.5243 6.23985 17.7737 7.55544 18.6527ZM13 11.001H16C16.2652 11.001 16.5196 11.1063 16.7071 11.2939C16.8946 11.4814 17 11.7358 17 12.001C17 12.2662 16.8946 12.5205 16.7071 12.7081C16.5196 12.8956 16.2652 13.001 16 13.001H12C11.7348 13.001 11.4804 12.8956 11.2929 12.7081C11.1054 12.5205 11 12.2662 11 12.001V8.00098C11 7.73576 11.1054 7.48141 11.2929 7.29387C11.4804 7.10633 11.7348 7.00098 12 7.00098C12.2652 7.00098 12.5196 7.10633 12.7071 7.29387C12.8946 7.48141 13 7.73576 13 8.00098V11.001Z"
        fill="#8999B0"
      />
    </svg>