
    <svg
      xmlns="http://www.w3.org/2000/svg"
      width="24"
      height="24"
      viewBox="0 0 24 24"
      fill="none"
    >
      <path
        fillRule="evenodd"
        clipRule="evenodd"
        d="M2 12.001C2 6.47813 6.47715 2.00098 12 2.00098C14.6522 2.00098 17.1957 3.05454 19.0711 4.92991C20.9464 6.80527 22 9.34881 22 12.001C22 17.5238 17.5228 22.001 12 22.001C6.47715 22.001 2 17.5238 2 12.001ZM12 13.001H16C16.5523 13.001 17 12.5533 17 12.001C17 11.4487 16.5523 11.001 16 11.001H13V8.00098C13 7.44869 12.5523 7.00098 12 7.00098C11.4477 7.00098 11 7.44869 11 8.00098V12.001C11 12.5533 11.4477 13.001 12 13.001Z"
        fill="#8999B0"
      />
    </svg>