<svg
  xmlns="http://www.w3.org/2000/svg"
  width="24"
  height="24"
  viewBox="0 0 24 24"
  fill="none"
>
  <path
    fillRule="evenodd"
    clipRule="evenodd"
    d="M18.1836 5.65527H19.5058C19.4098 5.7659 19.3038 5.88659 19.1877 6.0174C18.9429 6.28941 18.6766 6.58297 18.3887 6.89811L18.3864 6.90062C18.1011 7.21712 17.7827 7.57073 17.4311 7.96142L17.4301 7.9625C17.1017 8.32959 16.8694 8.59999 16.7485 8.76086C16.5947 8.96116 16.4883 9.20141 16.4883 9.47363C16.4883 9.82172 16.606 10.1483 16.8775 10.3912L16.8824 10.3954C17.1623 10.6394 17.5303 10.7178 17.8965 10.7178H22.2324C22.5498 10.7178 22.8848 10.65 23.1395 10.4209C23.3802 10.208 23.5 9.92296 23.5 9.6084C23.5 9.29342 23.3857 9.00362 23.146 8.78418C22.8911 8.54657 22.5571 8.46973 22.2324 8.46973H20.2157L22.3965 6.03162C22.5053 5.91496 22.5979 5.81471 22.6736 5.73105L22.6811 5.72232C22.7598 5.63124 22.8278 5.54788 22.8817 5.47439C22.9571 5.37157 23.0152 5.25617 23.0614 5.13827L23.0639 5.13162C23.1167 4.99083 23.1484 4.84143 23.1484 4.68652C23.1484 4.29839 22.9979 3.92231 22.6137 3.71499C22.326 3.55428 21.9679 3.50098 21.5938 3.50098H17.9199C17.6126 3.50098 17.3003 3.57265 17.0515 3.78374L17.0457 3.78875C16.8 4.00374 16.6875 4.29375 16.6875 4.60449C16.6875 4.77979 16.7161 4.97177 16.8113 5.14675C16.9135 5.3345 17.0752 5.46985 17.2748 5.53948C17.523 5.62607 17.8384 5.65527 18.1836 5.65527ZM9.42188 7.21191C9.03642 7.21191 8.66358 7.30186 8.37182 7.54941L8.36606 7.55438C8.07869 7.80582 7.94531 8.14466 7.94531 8.5166C7.94531 8.73357 7.9809 8.95924 8.09014 9.15993C8.20632 9.3734 8.38897 9.52649 8.61656 9.60589C8.92078 9.71201 9.31887 9.75098 9.77344 9.75098H11.8995C11.7149 9.96787 11.4941 10.2213 11.2365 10.5116C10.9097 10.8747 10.5542 11.2666 10.1699 11.6872L10.1676 11.6897C9.78734 12.1117 9.36279 12.5831 8.89398 13.104L8.893 13.1051C8.45393 13.5958 8.14875 13.9515 7.99259 14.1593C7.80369 14.4051 7.67969 14.6909 7.67969 15.0088C7.67969 15.4337 7.82214 15.8208 8.14314 16.108L8.14799 16.1122C8.47866 16.4005 8.92286 16.501 9.39062 16.501H15.1719C15.575 16.501 15.974 16.4144 16.2704 16.1475C16.5541 15.8968 16.6953 15.5629 16.6953 15.1885C16.6953 14.811 16.5595 14.4703 16.2768 14.2118C15.9789 13.9339 15.581 13.8369 15.1719 13.8369H12.1102L15.2676 10.307C15.4129 10.1513 15.5361 10.0178 15.6365 9.90684L15.644 9.8981C15.7474 9.77837 15.835 9.67092 15.9032 9.57791C15.9929 9.45555 16.0641 9.31541 16.1219 9.16757L16.1244 9.16091C16.1889 8.98888 16.2266 8.80953 16.2266 8.62598C16.2266 8.152 16.0455 7.71657 15.6 7.4767C15.2523 7.28208 14.8075 7.21191 14.3203 7.21191H9.42188ZM2.33008 15.4385H3.65228C3.55627 15.5491 3.45027 15.6698 3.3342 15.8006C3.08939 16.0726 2.82304 16.3662 2.53514 16.6813L2.53288 16.6838C2.24763 17.0003 1.92919 17.3539 1.57757 17.7446L1.5766 17.7457C1.24813 18.1128 1.01588 18.3832 0.894917 18.5441C0.741132 18.7444 0.634766 18.9846 0.634766 19.2568C0.634766 19.6049 0.752482 19.9315 1.024 20.1744L1.02885 20.1786C1.30873 20.4226 1.67676 20.501 2.04297 20.501H6.37891C6.69624 20.501 7.03127 20.4332 7.28598 20.2042C7.5267 19.9913 7.64648 19.7062 7.64648 19.3916C7.64648 19.0766 7.53213 18.7867 7.29237 18.5673C7.03751 18.3297 6.70352 18.2529 6.37891 18.2529H4.3622L6.54298 15.8148C6.65184 15.6982 6.7444 15.5979 6.82009 15.5143L6.82763 15.5055C6.90629 15.4144 6.97431 15.3311 7.0282 15.2576C7.10361 15.1548 7.16172 15.0394 7.20786 14.9215L7.21035 14.9148C7.26315 14.774 7.29492 14.6246 7.29492 14.4697C7.29492 14.0816 7.14436 13.7055 6.76015 13.4982C6.47253 13.3375 6.11435 13.2842 5.74023 13.2842H2.06641C1.75908 13.2842 1.44675 13.3559 1.19796 13.5669L1.19223 13.572C0.946531 13.7869 0.833984 14.077 0.833984 14.3877C0.833984 14.563 0.862569 14.755 0.957813 14.93C1.06 15.1177 1.22165 15.2531 1.42125 15.3227C1.66948 15.4093 1.98489 15.4385 2.33008 15.4385Z"
    fill="#8999B0"
  />
</svg>
