<svg width="512" height="512" viewBox="0 0 512 512" fill="none" xmlns="http://www.w3.org/2000/svg">
<rect width="512" height="512" rx="120" fill="white"/>
<g filter="url(#filter0_d_220_10795)">
<path d="M265.772 74.0681L426.991 209.707C430.299 212.474 432.209 216.549 432.209 220.843V400.616C432.209 408.659 420.91 420.034 412.805 420.034L304.208 420.034C302.272 420.034 300.704 418.465 300.704 416.53L300.704 394.398C300.704 392.462 302.275 390.893 304.21 390.893C334.069 390.899 360.511 390.903 376.674 390.905L380.487 390.905C382.282 390.906 383.909 390.906 385.355 390.906L389.132 390.906C389.489 390.906 389.823 390.906 390.135 390.906L393.097 390.907C400.936 390.907 402.858 385.336 402.858 380.33L402.858 231.004C402.85 227.243 402.664 225.689 398.136 221.943C395.02 219.365 348.624 180.973 258.947 106.769C258.004 105.989 256.027 104.478 253.22 106.804C251.369 108.337 204.466 147.148 112.509 223.237C111.462 224.103 109.351 227.006 109.372 231.362C109.573 273.37 109.663 306.34 109.667 330.27L109.667 333.407C109.664 360.646 109.544 375.347 109.351 377.509C108.794 383.747 109.908 390.729 122.758 390.818C127.241 390.849 201.546 390.872 271.142 390.887L271.141 420.034L99.5598 420.034C91.4549 420.034 80 408.659 80 400.616V220.843C80 216.549 81.9095 212.474 85.2181 209.707L246.858 74.0681C252.322 69.4981 260.308 69.4981 265.772 74.0681Z" fill="url(#paint0_linear_220_10795)"/>
<path fill-rule="evenodd" clip-rule="evenodd" d="M263.479 266.408L201.199 283.341C198.556 284.059 196.722 286.459 196.722 289.197V414.763C196.722 417.362 198.378 419.673 200.838 420.509L263.118 441.676C266.292 442.754 269.739 441.056 270.817 437.882C271.031 437.253 271.14 436.594 271.14 435.93V272.264C271.14 268.912 268.423 266.195 265.071 266.195C264.533 266.195 263.998 266.267 263.479 266.408Z" fill="url(#paint1_linear_220_10795)"/>
</g>
<defs>
<filter id="filter0_d_220_10795" x="38.9853" y="39.8796" width="434.238" height="453.389" filterUnits="userSpaceOnUse" color-interpolation-filters="sRGB">
<feFlood flood-opacity="0" result="BackgroundImageFix"/>
<feColorMatrix in="SourceAlpha" type="matrix" values="0 0 0 0 0 0 0 0 0 0 0 0 0 0 0 0 0 0 127 0" result="hardAlpha"/>
<feOffset dy="10.2537"/>
<feGaussianBlur stdDeviation="20.5074"/>
<feComposite in2="hardAlpha" operator="out"/>
<feColorMatrix type="matrix" values="0 0 0 0 0 0 0 0 0 0.0586275 0 0 0 0 0.216667 0 0 0 0.1 0"/>
<feBlend mode="normal" in2="BackgroundImageFix" result="effect1_dropShadow_220_10795"/>
<feBlend mode="normal" in="SourceGraphic" in2="effect1_dropShadow_220_10795" result="shape"/>
</filter>
<linearGradient id="paint0_linear_220_10795" x1="80" y1="70.6406" x2="432.209" y2="442" gradientUnits="userSpaceOnUse">
<stop stop-color="#C345FF"/>
<stop offset="0.410575" stop-color="#6666FF"/>
</linearGradient>
<linearGradient id="paint1_linear_220_10795" x1="80" y1="70.6406" x2="432.209" y2="442" gradientUnits="userSpaceOnUse">
<stop stop-color="#C345FF"/>
<stop offset="0.410575" stop-color="#6666FF"/>
</linearGradient>
</defs>
</svg>
