<svg width="44" height="44" viewBox="0 0 44 44" fill="none" xmlns="http://www.w3.org/2000/svg">
<path d="M23.0064 2.18592L39.7901 16.3066C40.1345 16.5947 40.3333 17.0189 40.3333 17.4659V36.1811C40.3333 37.0185 39.157 38.2027 38.3132 38.2027L26.6429 38.2026L26.643 35.1689C29.9002 35.1695 32.8036 35.1699 34.5519 35.1702L34.9487 35.1702C35.1357 35.1702 35.3051 35.1703 35.4556 35.1703L35.8488 35.1703C35.8859 35.1703 35.9207 35.1703 35.9532 35.1703L36.2615 35.1704C37.0776 35.1704 37.2777 34.5904 37.2777 34.0693L37.2777 18.5237C37.2769 18.1321 37.2575 17.9704 36.7861 17.5804C36.4618 17.312 31.6317 13.3153 22.2958 5.59021C22.1977 5.50902 21.9919 5.35172 21.6997 5.59388C21.507 5.7535 16.6241 9.7939 7.05098 17.7151C6.94199 17.8053 6.72218 18.1075 6.72436 18.561C6.74534 22.9342 6.75468 26.3665 6.75514 28.8578L6.75515 29.1844C6.75478 32.0201 6.74228 33.5505 6.72218 33.7756C6.66419 34.425 6.78017 35.1519 8.11795 35.1611C8.58464 35.1643 16.3201 35.1668 23.5654 35.1683L23.5653 38.2026L5.7029 38.2027C4.85913 38.2027 3.66663 37.0185 3.66663 36.1811V17.4659C3.66663 17.0189 3.86541 16.5947 4.20985 16.3066L21.0373 2.18592C21.6061 1.71016 22.4376 1.71016 23.0064 2.18592Z" fill="#000F37"/>
<path fillRule="evenodd" clipRule="evenodd" d="M22.7673 22.2094L16.2836 23.9723C16.0085 24.0471 15.8176 24.2969 15.8176 24.5819V37.654C15.8176 37.9245 15.9899 38.1651 16.2461 38.2521L22.7297 40.4557C23.0601 40.568 23.4189 40.3912 23.5312 40.0608C23.5535 39.9953 23.5648 39.9266 23.5648 39.8575V22.8191C23.5648 22.4702 23.282 22.1873 22.933 22.1873C22.877 22.1873 22.8213 22.1948 22.7673 22.2094Z" fill="#000F37"/>
</svg>
