<svg
  width="24"
  height="24"
  viewBox="0 0 24 24"
  fill="none"
  xmlns="http://www.w3.org/2000/svg"
>
  <path
    d="M20.9 2.00085H3.1C2.80826 2.00085 2.52847 2.11675 2.32218 2.32304C2.11589 2.52933 2 2.80912 2 3.10085V20.9009C2 21.0453 2.02845 21.1883 2.08373 21.3218C2.13901 21.4553 2.22004 21.5765 2.32218 21.6787C2.42433 21.7808 2.54559 21.8618 2.67905 21.9171C2.81251 21.9724 2.95555 22.0009 3.1 22.0009H12.68V14.2509H10.08V11.2509H12.68V9.00085C12.6261 8.47261 12.6885 7.93898 12.8627 7.43739C13.0369 6.9358 13.3188 6.4784 13.6885 6.09727C14.0582 5.71613 14.5068 5.4205 15.0028 5.23109C15.4989 5.04169 16.0304 4.96311 16.56 5.00085C17.3383 4.99606 18.1163 5.03613 18.89 5.12085V7.82085H17.3C16.04 7.82085 15.8 8.42085 15.8 9.29085V11.2209H18.8L18.41 14.2209H15.8V22.0009H20.9C21.0445 22.0009 21.1875 21.9724 21.321 21.9171C21.4544 21.8618 21.5757 21.7808 21.6778 21.6787C21.78 21.5765 21.861 21.4553 21.9163 21.3218C21.9715 21.1883 22 21.0453 22 20.9009V3.10085C22 2.9564 21.9715 2.81336 21.9163 2.6799C21.861 2.54644 21.78 2.42518 21.6778 2.32304C21.5757 2.22089 21.4544 2.13987 21.321 2.08459C21.1875 2.02931 21.0445 2.00085 20.9 2.00085Z"
    fill="inherit"
  />
</svg>