<svg
  width="24"
  height="24"
  viewBox="0 0 24 24"
  fill="none"
  xmlns="http://www.w3.org/2000/svg"
>
  <path
    d="M20.47 2.00087H3.53C3.33958 1.99823 3.1505 2.03312 2.97356 2.10356C2.79663 2.17399 2.6353 2.27859 2.4988 2.41138C2.36229 2.54418 2.25328 2.70256 2.17799 2.87748C2.1027 3.05241 2.06261 3.24045 2.06 3.43087V20.5709C2.06261 20.7613 2.1027 20.9493 2.17799 21.1243C2.25328 21.2992 2.36229 21.4576 2.4988 21.5904C2.6353 21.7232 2.79663 21.8278 2.97356 21.8982C3.1505 21.9686 3.33958 22.0035 3.53 22.0009H20.47C20.6604 22.0035 20.8495 21.9686 21.0264 21.8982C21.2034 21.8278 21.3647 21.7232 21.5012 21.5904C21.6377 21.4576 21.7467 21.2992 21.822 21.1243C21.8973 20.9493 21.9374 20.7613 21.94 20.5709V3.43087C21.9374 3.24045 21.8973 3.05241 21.822 2.87748C21.7467 2.70256 21.6377 2.54418 21.5012 2.41138C21.3647 2.27859 21.2034 2.17399 21.0264 2.10356C20.8495 2.03312 20.6604 1.99823 20.47 2.00087ZM8.09 18.7409H5.09V9.74087H8.09V18.7409ZM6.59 8.48087C6.17626 8.48087 5.77947 8.31652 5.48691 8.02396C5.19435 7.7314 5.03 7.33461 5.03 6.92087C5.03 6.50713 5.19435 6.11034 5.48691 5.81779C5.77947 5.52523 6.17626 5.36087 6.59 5.36087C6.80969 5.33596 7.03217 5.35773 7.24287 5.42476C7.45357 5.49178 7.64774 5.60256 7.81265 5.74983C7.97757 5.89711 8.10952 6.07755 8.19987 6.27935C8.29021 6.48116 8.33692 6.69977 8.33692 6.92087C8.33692 7.14198 8.29021 7.36059 8.19987 7.56239C8.10952 7.76419 7.97757 7.94464 7.81265 8.09191C7.64774 8.23918 7.45357 8.34996 7.24287 8.41699C7.03217 8.48402 6.80969 8.50579 6.59 8.48087ZM18.91 18.7409H15.91V13.9109C15.91 12.7009 15.48 11.9109 14.39 11.9109C14.0527 11.9133 13.7242 12.0192 13.4488 12.214C13.1735 12.4089 12.9645 12.6835 12.85 13.0009C12.7717 13.2359 12.7378 13.4834 12.75 13.7309V18.7309H9.75C9.75 18.7309 9.75 10.5509 9.75 9.73087H12.75V11.0009C13.0225 10.528 13.4189 10.1384 13.8964 9.87407C14.374 9.60976 14.9146 9.48072 15.46 9.50087C17.46 9.50087 18.91 10.7909 18.91 13.5609V18.7409Z"
    fill="inherit"
  />
</svg>